<svg width="1362" height="396" viewBox="0 0 1362 396" fill="none" xmlns="http://www.w3.org/2000/svg">
<g clip-path="url(#clip0)">
<rect width="1362" height="396" rx="16" fill="#232126"/>
<path d="M890.303 156.667C890.126 156.667 889.976 156.614 889.852 156.508C889.746 156.384 889.693 156.234 889.693 156.057V140.475H884.605C884.429 140.475 884.279 140.422 884.155 140.316C884.049 140.192 883.996 140.042 883.996 139.866V138.753C883.996 138.576 884.049 138.426 884.155 138.302C884.279 138.178 884.429 138.117 884.605 138.117H897.378C897.573 138.117 897.723 138.178 897.829 138.302C897.953 138.408 898.014 138.558 898.014 138.753V139.866C898.014 140.042 897.953 140.192 897.829 140.316C897.705 140.422 897.555 140.475 897.378 140.475H892.317V156.057C892.317 156.234 892.255 156.384 892.131 156.508C892.008 156.614 891.858 156.667 891.681 156.667H890.303ZM900.904 161.702C900.763 161.702 900.639 161.649 900.533 161.543C900.427 161.437 900.374 161.313 900.374 161.172C900.374 161.048 900.418 160.889 900.507 160.695L902.547 155.845L897.486 143.894C897.397 143.664 897.353 143.514 897.353 143.443C897.353 143.284 897.406 143.152 897.512 143.046C897.618 142.94 897.751 142.887 897.91 142.887H899.208C899.491 142.887 899.703 143.037 899.844 143.337L903.872 152.983L908.006 143.337C908.147 143.037 908.368 142.887 908.669 142.887H909.914C910.073 142.887 910.206 142.94 910.312 143.046C910.418 143.152 910.471 143.275 910.471 143.417C910.471 143.47 910.426 143.629 910.338 143.894L902.812 161.251C902.671 161.551 902.45 161.702 902.15 161.702H900.904ZM913.75 161.702C913.574 161.702 913.423 161.64 913.3 161.516C913.194 161.41 913.141 161.269 913.141 161.092V143.496C913.141 143.319 913.194 143.178 913.3 143.072C913.423 142.948 913.574 142.887 913.75 142.887H914.969C915.146 142.887 915.287 142.948 915.393 143.072C915.517 143.178 915.579 143.319 915.579 143.496V144.662C916.568 143.302 918.017 142.622 919.925 142.622C921.78 142.622 923.167 143.205 924.085 144.371C925.022 145.537 925.525 147.038 925.596 148.876C925.613 149.07 925.622 149.37 925.622 149.777C925.622 150.183 925.613 150.483 925.596 150.678C925.525 152.497 925.022 153.999 924.085 155.183C923.149 156.349 921.762 156.932 919.925 156.932C918.087 156.932 916.656 156.269 915.632 154.944V161.092C915.632 161.269 915.579 161.41 915.473 161.516C915.367 161.64 915.225 161.702 915.049 161.702H913.75ZM919.368 154.785C920.623 154.785 921.532 154.396 922.098 153.619C922.681 152.842 922.999 151.817 923.052 150.545C923.069 150.368 923.078 150.112 923.078 149.777C923.078 146.438 921.842 144.768 919.368 144.768C918.149 144.768 917.231 145.174 916.612 145.987C916.012 146.782 915.685 147.736 915.632 148.849L915.605 149.856L915.632 150.89C915.667 151.932 916.003 152.842 916.639 153.619C917.275 154.396 918.185 154.785 919.368 154.785ZM934.412 156.932C932.593 156.932 931.135 156.375 930.04 155.262C928.962 154.131 928.37 152.594 928.264 150.651L928.238 149.75L928.264 148.876C928.388 146.968 928.989 145.448 930.066 144.318C931.162 143.187 932.601 142.622 934.386 142.622C936.347 142.622 937.866 143.249 938.944 144.503C940.021 145.74 940.56 147.418 940.56 149.538V149.989C940.56 150.165 940.498 150.315 940.375 150.439C940.269 150.545 940.127 150.598 939.951 150.598H930.782V150.837C930.835 151.985 931.179 152.965 931.815 153.778C932.469 154.573 933.326 154.971 934.386 154.971C935.198 154.971 935.861 154.812 936.373 154.494C936.903 154.158 937.292 153.813 937.539 153.46C937.698 153.248 937.813 153.124 937.884 153.089C937.972 153.036 938.122 153.01 938.334 153.01H939.633C939.792 153.01 939.924 153.054 940.03 153.142C940.136 153.23 940.189 153.354 940.189 153.513C940.189 153.902 939.942 154.37 939.447 154.918C938.97 155.465 938.29 155.942 937.407 156.349C936.541 156.737 935.543 156.932 934.412 156.932ZM938.043 148.77V148.69C938.043 147.471 937.707 146.482 937.036 145.722C936.382 144.945 935.499 144.556 934.386 144.556C933.273 144.556 932.389 144.945 931.736 145.722C931.1 146.482 930.782 147.471 930.782 148.69V148.77H938.043ZM950.036 156.932C948.57 156.932 947.298 156.702 946.22 156.243C945.16 155.783 944.347 155.183 943.782 154.441C943.217 153.681 942.916 152.868 942.881 152.003C942.881 151.861 942.934 151.738 943.04 151.632C943.164 151.508 943.305 151.446 943.464 151.446H944.815C945.151 151.446 945.381 151.623 945.504 151.976C945.663 152.718 946.114 153.354 946.856 153.884C947.616 154.414 948.676 154.679 950.036 154.679C951.502 154.679 952.606 154.423 953.348 153.911C954.09 153.381 954.461 152.647 954.461 151.711C954.461 151.11 954.276 150.625 953.905 150.254C953.552 149.883 953.022 149.556 952.315 149.273C951.608 148.99 950.548 148.637 949.135 148.213C947.757 147.824 946.662 147.409 945.849 146.968C945.036 146.526 944.427 145.978 944.02 145.325C943.614 144.671 943.411 143.849 943.411 142.86C943.411 141.906 943.667 141.049 944.179 140.29C944.709 139.53 945.46 138.938 946.432 138.514C947.404 138.072 948.561 137.852 949.903 137.852C951.281 137.852 952.465 138.099 953.454 138.594C954.444 139.071 955.195 139.68 955.707 140.422C956.219 141.164 956.493 141.906 956.528 142.648C956.528 142.789 956.475 142.913 956.369 143.019C956.281 143.125 956.149 143.178 955.972 143.178H954.567C954.196 143.178 953.967 143.01 953.878 142.675C953.772 141.933 953.357 141.323 952.633 140.846C951.909 140.351 950.999 140.104 949.903 140.104C948.702 140.104 947.757 140.334 947.068 140.793C946.379 141.252 946.034 141.933 946.034 142.834C946.034 143.434 946.193 143.929 946.511 144.318C946.847 144.706 947.351 145.051 948.022 145.351C948.693 145.634 949.674 145.961 950.963 146.332C952.465 146.738 953.649 147.162 954.514 147.604C955.38 148.028 956.025 148.566 956.449 149.22C956.873 149.856 957.085 150.669 957.085 151.658C957.085 153.301 956.449 154.591 955.177 155.527C953.905 156.463 952.191 156.932 950.036 156.932ZM965.779 156.932C963.888 156.932 962.404 156.402 961.327 155.342C960.267 154.264 959.701 152.762 959.631 150.837L959.604 149.777L959.631 148.717C959.701 146.791 960.267 145.298 961.327 144.238C962.404 143.16 963.888 142.622 965.779 142.622C967.051 142.622 968.128 142.851 969.012 143.311C969.895 143.77 970.549 144.335 970.973 145.007C971.414 145.678 971.653 146.349 971.688 147.021C971.706 147.197 971.653 147.339 971.529 147.445C971.406 147.551 971.255 147.604 971.079 147.604H969.807C969.63 147.604 969.498 147.568 969.409 147.498C969.321 147.427 969.233 147.286 969.144 147.074C968.844 146.226 968.42 145.625 967.872 145.272C967.325 144.901 966.636 144.715 965.805 144.715C964.71 144.715 963.835 145.06 963.182 145.749C962.546 146.42 962.201 147.453 962.148 148.849L962.122 149.803L962.148 150.704C962.201 152.117 962.546 153.16 963.182 153.831C963.818 154.502 964.692 154.838 965.805 154.838C966.636 154.838 967.325 154.661 967.872 154.308C968.42 153.937 968.844 153.328 969.144 152.48C969.233 152.268 969.321 152.126 969.409 152.056C969.498 151.967 969.63 151.923 969.807 151.923H971.079C971.255 151.923 971.406 151.985 971.529 152.109C971.653 152.215 971.706 152.356 971.688 152.533C971.653 153.186 971.414 153.858 970.973 154.547C970.549 155.218 969.895 155.783 969.012 156.243C968.146 156.702 967.068 156.932 965.779 156.932ZM975.445 156.667C975.268 156.667 975.118 156.614 974.994 156.508C974.888 156.384 974.835 156.234 974.835 156.057V143.523C974.835 143.346 974.888 143.196 974.994 143.072C975.118 142.948 975.268 142.887 975.445 142.887H976.664C976.841 142.887 976.991 142.948 977.114 143.072C977.238 143.196 977.3 143.346 977.3 143.523V144.689C978.024 143.487 979.261 142.887 981.01 142.887H982.043C982.22 142.887 982.361 142.948 982.467 143.072C982.591 143.178 982.653 143.319 982.653 143.496V144.583C982.653 144.759 982.591 144.901 982.467 145.007C982.361 145.113 982.22 145.166 982.043 145.166H980.453C979.499 145.166 978.749 145.448 978.201 146.014C977.653 146.561 977.379 147.312 977.379 148.266V156.057C977.379 156.234 977.318 156.384 977.194 156.508C977.07 156.614 976.92 156.667 976.743 156.667H975.445ZM985.3 140.316C985.123 140.316 984.973 140.263 984.849 140.157C984.743 140.033 984.69 139.883 984.69 139.707V138.276C984.69 138.099 984.743 137.949 984.849 137.825C984.973 137.701 985.123 137.64 985.3 137.64H986.969C987.146 137.64 987.296 137.701 987.42 137.825C987.543 137.949 987.605 138.099 987.605 138.276V139.707C987.605 139.883 987.543 140.033 987.42 140.157C987.296 140.263 987.146 140.316 986.969 140.316H985.3ZM985.512 156.667C985.335 156.667 985.185 156.614 985.061 156.508C984.955 156.384 984.902 156.234 984.902 156.057V143.496C984.902 143.319 984.955 143.178 985.061 143.072C985.185 142.948 985.335 142.887 985.512 142.887H986.784C986.96 142.887 987.102 142.948 987.208 143.072C987.331 143.178 987.393 143.319 987.393 143.496V156.057C987.393 156.234 987.331 156.384 987.208 156.508C987.102 156.614 986.96 156.667 986.784 156.667H985.512ZM991.956 161.702C991.78 161.702 991.629 161.64 991.506 161.516C991.4 161.41 991.347 161.269 991.347 161.092V143.496C991.347 143.319 991.4 143.178 991.506 143.072C991.629 142.948 991.78 142.887 991.956 142.887H993.175C993.352 142.887 993.493 142.948 993.599 143.072C993.723 143.178 993.785 143.319 993.785 143.496V144.662C994.774 143.302 996.223 142.622 998.131 142.622C999.986 142.622 1001.37 143.205 1002.29 144.371C1003.23 145.537 1003.73 147.038 1003.8 148.876C1003.82 149.07 1003.83 149.37 1003.83 149.777C1003.83 150.183 1003.82 150.483 1003.8 150.678C1003.73 152.497 1003.23 153.999 1002.29 155.183C1001.35 156.349 999.968 156.932 998.131 156.932C996.293 156.932 994.862 156.269 993.838 154.944V161.092C993.838 161.269 993.785 161.41 993.679 161.516C993.573 161.64 993.431 161.702 993.255 161.702H991.956ZM997.574 154.785C998.829 154.785 999.738 154.396 1000.3 153.619C1000.89 152.842 1001.2 151.817 1001.26 150.545C1001.28 150.368 1001.28 150.112 1001.28 149.777C1001.28 146.438 1000.05 144.768 997.574 144.768C996.355 144.768 995.437 145.174 994.818 145.987C994.218 146.782 993.891 147.736 993.838 148.849L993.811 149.856L993.838 150.89C993.873 151.932 994.209 152.842 994.845 153.619C995.481 154.396 996.391 154.785 997.574 154.785ZM1012.33 156.667C1009.54 156.667 1008.14 155.112 1008.14 152.003V145.007H1006.08C1005.9 145.007 1005.75 144.954 1005.63 144.848C1005.52 144.724 1005.47 144.574 1005.47 144.397V143.496C1005.47 143.319 1005.52 143.178 1005.63 143.072C1005.75 142.948 1005.9 142.887 1006.08 142.887H1008.14V138.461C1008.14 138.284 1008.2 138.143 1008.3 138.037C1008.43 137.913 1008.58 137.852 1008.75 137.852H1010C1010.18 137.852 1010.32 137.913 1010.42 138.037C1010.55 138.143 1010.61 138.284 1010.61 138.461V142.887H1013.89C1014.07 142.887 1014.21 142.948 1014.32 143.072C1014.44 143.178 1014.5 143.319 1014.5 143.496V144.397C1014.5 144.574 1014.44 144.724 1014.32 144.848C1014.21 144.954 1014.07 145.007 1013.89 145.007H1010.61V151.817C1010.61 152.7 1010.76 153.372 1011.06 153.831C1011.36 154.273 1011.85 154.494 1012.54 154.494H1014.16C1014.34 154.494 1014.48 154.555 1014.58 154.679C1014.71 154.785 1014.77 154.926 1014.77 155.103V156.057C1014.77 156.234 1014.71 156.384 1014.58 156.508C1014.48 156.614 1014.34 156.667 1014.16 156.667H1012.33Z" fill="white"/>
<rect x="914.25" y="60" width="66.25" height="66.25" rx="11.0417" fill="#007ACC"/>
<path d="M954.483 96.7311H946.409V119.125H943.114V96.7311H935.057V94.0052H954.483V96.7311ZM965.335 107.928C962.494 107.111 960.424 106.111 959.124 104.926C957.836 103.73 957.192 102.258 957.192 100.509C957.192 98.5311 957.98 96.8979 959.555 95.6097C961.143 94.31 963.201 93.6602 965.732 93.6602C967.457 93.6602 968.993 93.9937 970.338 94.6608C971.695 95.3279 972.742 96.248 973.478 97.4212C974.226 98.5944 974.6 99.8768 974.6 101.269H971.27C971.27 99.7503 970.787 98.5599 969.821 97.6973C968.854 96.8231 967.492 96.3861 965.732 96.3861C964.099 96.3861 962.822 96.7484 961.902 97.473C960.993 98.1861 960.539 99.181 960.539 100.458C960.539 101.481 960.97 102.35 961.833 103.063C962.707 103.764 964.185 104.409 966.267 104.995C968.36 105.582 969.993 106.232 971.166 106.945C972.351 107.646 973.225 108.469 973.789 109.412C974.364 110.355 974.651 111.465 974.651 112.742C974.651 114.777 973.858 116.411 972.271 117.641C970.683 118.86 968.561 119.47 965.904 119.47C964.179 119.47 962.569 119.142 961.074 118.487C959.578 117.82 958.422 116.911 957.606 115.761C956.801 114.611 956.398 113.305 956.398 111.844H959.728C959.728 113.363 960.286 114.565 961.401 115.45C962.529 116.324 964.03 116.761 965.904 116.761C967.653 116.761 968.993 116.405 969.924 115.692C970.856 114.979 971.322 114.007 971.322 112.776C971.322 111.545 970.89 110.596 970.028 109.929C969.165 109.251 967.601 108.584 965.335 107.928Z" fill="white"/>
<path d="M590.818 156.932C588.892 156.932 587.293 156.455 586.021 155.501C584.749 154.547 584.078 153.151 584.007 151.314C584.007 151.155 584.06 151.022 584.166 150.916C584.272 150.792 584.413 150.731 584.59 150.731H586.021C586.392 150.731 586.622 150.934 586.71 151.34C586.816 152.471 587.249 153.31 588.009 153.858C588.768 154.405 589.722 154.679 590.871 154.679C592.196 154.679 593.211 154.246 593.918 153.381C594.642 152.497 595.005 151.314 595.005 149.83V140.422H585.597C585.42 140.422 585.27 140.369 585.147 140.263C585.041 140.139 584.988 139.989 584.988 139.813V138.726C584.988 138.549 585.041 138.408 585.147 138.302C585.27 138.178 585.42 138.117 585.597 138.117H597.019C597.213 138.117 597.363 138.178 597.469 138.302C597.593 138.408 597.655 138.558 597.655 138.753V149.883C597.655 152.038 597.045 153.752 595.826 155.024C594.625 156.296 592.955 156.932 590.818 156.932ZM605.495 156.932C604.63 156.932 603.826 156.755 603.084 156.402C602.342 156.048 601.75 155.571 601.308 154.971C600.884 154.352 600.672 153.672 600.672 152.93C600.672 151.764 601.149 150.81 602.103 150.068C603.075 149.308 604.382 148.814 606.025 148.584L609.974 148.028V147.259C609.974 145.457 608.94 144.556 606.873 144.556C606.096 144.556 605.46 144.724 604.965 145.06C604.471 145.378 604.1 145.757 603.852 146.199C603.799 146.358 603.729 146.473 603.64 146.544C603.57 146.614 603.464 146.65 603.322 146.65H602.183C602.024 146.65 601.883 146.597 601.759 146.491C601.653 146.367 601.6 146.226 601.6 146.067C601.618 145.643 601.812 145.166 602.183 144.636C602.572 144.088 603.163 143.62 603.958 143.231C604.753 142.825 605.734 142.622 606.9 142.622C608.879 142.622 610.301 143.09 611.166 144.026C612.032 144.945 612.465 146.093 612.465 147.471V156.057C612.465 156.234 612.403 156.384 612.279 156.508C612.173 156.614 612.032 156.667 611.855 156.667H610.636C610.46 156.667 610.31 156.614 610.186 156.508C610.08 156.384 610.027 156.234 610.027 156.057V154.918C609.638 155.483 609.073 155.96 608.331 156.349C607.589 156.737 606.644 156.932 605.495 156.932ZM606.052 154.944C607.2 154.944 608.137 154.573 608.861 153.831C609.603 153.071 609.974 151.985 609.974 150.572V149.83L606.9 150.28C605.646 150.457 604.7 150.757 604.064 151.181C603.428 151.587 603.11 152.109 603.11 152.745C603.11 153.451 603.402 153.999 603.985 154.388C604.568 154.759 605.257 154.944 606.052 154.944ZM620.812 156.667C620.353 156.667 620.026 156.446 619.832 156.004L614.929 143.708L614.876 143.443C614.876 143.284 614.929 143.152 615.035 143.046C615.141 142.94 615.274 142.887 615.433 142.887H616.705C617.005 142.887 617.226 143.037 617.367 143.337L621.395 153.778L625.423 143.337C625.582 143.037 625.794 142.887 626.059 142.887H627.358C627.499 142.887 627.623 142.94 627.729 143.046C627.852 143.152 627.914 143.284 627.914 143.443L627.861 143.708L622.932 156.004C622.738 156.446 622.411 156.667 621.952 156.667H620.812ZM634.014 156.932C633.148 156.932 632.344 156.755 631.602 156.402C630.86 156.048 630.269 155.571 629.827 154.971C629.403 154.352 629.191 153.672 629.191 152.93C629.191 151.764 629.668 150.81 630.622 150.068C631.594 149.308 632.901 148.814 634.544 148.584L638.492 148.028V147.259C638.492 145.457 637.459 144.556 635.392 144.556C634.615 144.556 633.979 144.724 633.484 145.06C632.989 145.378 632.618 145.757 632.371 146.199C632.318 146.358 632.247 146.473 632.159 146.544C632.088 146.614 631.982 146.65 631.841 146.65H630.701C630.542 146.65 630.401 146.597 630.277 146.491C630.171 146.367 630.118 146.226 630.118 146.067C630.136 145.643 630.33 145.166 630.701 144.636C631.09 144.088 631.682 143.62 632.477 143.231C633.272 142.825 634.252 142.622 635.418 142.622C637.397 142.622 638.819 143.09 639.685 144.026C640.551 144.945 640.983 146.093 640.983 147.471V156.057C640.983 156.234 640.922 156.384 640.798 156.508C640.692 156.614 640.551 156.667 640.374 156.667H639.155C638.978 156.667 638.828 156.614 638.704 156.508C638.598 156.384 638.545 156.234 638.545 156.057V154.918C638.157 155.483 637.591 155.96 636.849 156.349C636.107 156.737 635.162 156.932 634.014 156.932ZM634.57 154.944C635.719 154.944 636.655 154.573 637.379 153.831C638.121 153.071 638.492 151.985 638.492 150.572V149.83L635.418 150.28C634.164 150.457 633.219 150.757 632.583 151.181C631.947 151.587 631.629 152.109 631.629 152.745C631.629 153.451 631.92 153.999 632.503 154.388C633.086 154.759 633.775 154.944 634.57 154.944ZM649.563 156.932C648.326 156.932 647.284 156.737 646.436 156.349C645.606 155.942 644.979 155.483 644.555 154.971C644.148 154.458 643.945 154.034 643.945 153.699C643.945 153.522 644.007 153.389 644.131 153.301C644.272 153.195 644.413 153.142 644.555 153.142H645.747C645.924 153.142 646.083 153.23 646.224 153.407C646.648 153.902 647.107 154.29 647.602 154.573C648.097 154.856 648.759 154.997 649.59 154.997C650.508 154.997 651.25 154.82 651.816 154.467C652.399 154.096 652.69 153.593 652.69 152.957C652.69 152.533 652.566 152.188 652.319 151.923C652.089 151.64 651.683 151.402 651.1 151.208C650.535 150.996 649.687 150.766 648.556 150.519C647.019 150.183 645.924 149.697 645.27 149.061C644.634 148.425 644.316 147.604 644.316 146.597C644.316 145.925 644.51 145.289 644.899 144.689C645.305 144.07 645.888 143.576 646.648 143.205C647.425 142.816 648.353 142.622 649.431 142.622C650.561 142.622 651.524 142.807 652.319 143.178C653.114 143.549 653.706 143.991 654.095 144.503C654.501 144.998 654.704 145.413 654.704 145.749C654.704 145.908 654.642 146.04 654.519 146.146C654.413 146.252 654.28 146.305 654.121 146.305H653.008C652.796 146.305 652.619 146.217 652.478 146.04C652.195 145.704 651.948 145.448 651.736 145.272C651.542 145.077 651.25 144.909 650.862 144.768C650.491 144.627 650.014 144.556 649.431 144.556C648.583 144.556 647.929 144.742 647.47 145.113C647.01 145.466 646.781 145.934 646.781 146.517C646.781 146.888 646.878 147.206 647.072 147.471C647.266 147.718 647.637 147.948 648.185 148.16C648.75 148.372 649.563 148.593 650.623 148.823C652.301 149.176 653.485 149.688 654.174 150.36C654.881 151.013 655.234 151.852 655.234 152.877C655.234 153.637 655.013 154.326 654.572 154.944C654.13 155.562 653.476 156.048 652.611 156.402C651.763 156.755 650.747 156.932 649.563 156.932ZM663.867 156.932C661.976 156.932 660.492 156.402 659.415 155.342C658.355 154.264 657.789 152.762 657.719 150.837L657.692 149.777L657.719 148.717C657.789 146.791 658.355 145.298 659.415 144.238C660.492 143.16 661.976 142.622 663.867 142.622C665.139 142.622 666.216 142.851 667.1 143.311C667.983 143.77 668.637 144.335 669.061 145.007C669.502 145.678 669.741 146.349 669.776 147.021C669.794 147.197 669.741 147.339 669.617 147.445C669.494 147.551 669.343 147.604 669.167 147.604H667.895C667.718 147.604 667.586 147.568 667.497 147.498C667.409 147.427 667.321 147.286 667.232 147.074C666.932 146.226 666.508 145.625 665.96 145.272C665.413 144.901 664.724 144.715 663.893 144.715C662.798 144.715 661.923 145.06 661.27 145.749C660.634 146.42 660.289 147.453 660.236 148.849L660.21 149.803L660.236 150.704C660.289 152.117 660.634 153.16 661.27 153.831C661.906 154.502 662.78 154.838 663.893 154.838C664.724 154.838 665.413 154.661 665.96 154.308C666.508 153.937 666.932 153.328 667.232 152.48C667.321 152.268 667.409 152.126 667.497 152.056C667.586 151.967 667.718 151.923 667.895 151.923H669.167C669.343 151.923 669.494 151.985 669.617 152.109C669.741 152.215 669.794 152.356 669.776 152.533C669.741 153.186 669.502 153.858 669.061 154.547C668.637 155.218 667.983 155.783 667.1 156.243C666.234 156.702 665.156 156.932 663.867 156.932ZM673.533 156.667C673.356 156.667 673.206 156.614 673.082 156.508C672.976 156.384 672.923 156.234 672.923 156.057V143.523C672.923 143.346 672.976 143.196 673.082 143.072C673.206 142.948 673.356 142.887 673.533 142.887H674.752C674.929 142.887 675.079 142.948 675.202 143.072C675.326 143.196 675.388 143.346 675.388 143.523V144.689C676.112 143.487 677.349 142.887 679.098 142.887H680.131C680.308 142.887 680.449 142.948 680.555 143.072C680.679 143.178 680.741 143.319 680.741 143.496V144.583C680.741 144.759 680.679 144.901 680.555 145.007C680.449 145.113 680.308 145.166 680.131 145.166H678.541C677.587 145.166 676.837 145.448 676.289 146.014C675.741 146.561 675.467 147.312 675.467 148.266V156.057C675.467 156.234 675.406 156.384 675.282 156.508C675.158 156.614 675.008 156.667 674.831 156.667H673.533ZM683.388 140.316C683.211 140.316 683.061 140.263 682.937 140.157C682.831 140.033 682.778 139.883 682.778 139.707V138.276C682.778 138.099 682.831 137.949 682.937 137.825C683.061 137.701 683.211 137.64 683.388 137.64H685.057C685.234 137.64 685.384 137.701 685.508 137.825C685.631 137.949 685.693 138.099 685.693 138.276V139.707C685.693 139.883 685.631 140.033 685.508 140.157C685.384 140.263 685.234 140.316 685.057 140.316H683.388ZM683.6 156.667C683.423 156.667 683.273 156.614 683.149 156.508C683.043 156.384 682.99 156.234 682.99 156.057V143.496C682.99 143.319 683.043 143.178 683.149 143.072C683.273 142.948 683.423 142.887 683.6 142.887H684.872C685.048 142.887 685.19 142.948 685.296 143.072C685.419 143.178 685.481 143.319 685.481 143.496V156.057C685.481 156.234 685.419 156.384 685.296 156.508C685.19 156.614 685.048 156.667 684.872 156.667H683.6ZM690.044 161.702C689.868 161.702 689.717 161.64 689.594 161.516C689.488 161.41 689.435 161.269 689.435 161.092V143.496C689.435 143.319 689.488 143.178 689.594 143.072C689.717 142.948 689.868 142.887 690.044 142.887H691.263C691.44 142.887 691.581 142.948 691.687 143.072C691.811 143.178 691.873 143.319 691.873 143.496V144.662C692.862 143.302 694.311 142.622 696.219 142.622C698.074 142.622 699.461 143.205 700.379 144.371C701.316 145.537 701.819 147.038 701.89 148.876C701.907 149.07 701.916 149.37 701.916 149.777C701.916 150.183 701.907 150.483 701.89 150.678C701.819 152.497 701.316 153.999 700.379 155.183C699.443 156.349 698.056 156.932 696.219 156.932C694.381 156.932 692.95 156.269 691.926 154.944V161.092C691.926 161.269 691.873 161.41 691.767 161.516C691.661 161.64 691.519 161.702 691.343 161.702H690.044ZM695.662 154.785C696.917 154.785 697.826 154.396 698.392 153.619C698.975 152.842 699.293 151.817 699.346 150.545C699.363 150.368 699.372 150.112 699.372 149.777C699.372 146.438 698.136 144.768 695.662 144.768C694.443 144.768 693.525 145.174 692.906 145.987C692.306 146.782 691.979 147.736 691.926 148.849L691.899 149.856L691.926 150.89C691.961 151.932 692.297 152.842 692.933 153.619C693.569 154.396 694.479 154.785 695.662 154.785ZM710.419 156.667C707.627 156.667 706.232 155.112 706.232 152.003V145.007H704.165C703.988 145.007 703.838 144.954 703.714 144.848C703.608 144.724 703.555 144.574 703.555 144.397V143.496C703.555 143.319 703.608 143.178 703.714 143.072C703.838 142.948 703.988 142.887 704.165 142.887H706.232V138.461C706.232 138.284 706.285 138.143 706.391 138.037C706.514 137.913 706.664 137.852 706.841 137.852H708.087C708.263 137.852 708.405 137.913 708.511 138.037C708.634 138.143 708.696 138.284 708.696 138.461V142.887H711.982C712.159 142.887 712.3 142.948 712.406 143.072C712.53 143.178 712.592 143.319 712.592 143.496V144.397C712.592 144.574 712.53 144.724 712.406 144.848C712.3 144.954 712.159 145.007 711.982 145.007H708.696V151.817C708.696 152.7 708.846 153.372 709.147 153.831C709.447 154.273 709.942 154.494 710.631 154.494H712.247C712.424 154.494 712.565 154.555 712.671 154.679C712.795 154.785 712.857 154.926 712.857 155.103V156.057C712.857 156.234 712.795 156.384 712.671 156.508C712.565 156.614 712.424 156.667 712.247 156.667H710.419Z" fill="white"/>
<rect x="613.917" y="60" width="66.25" height="66.25" rx="11.0417" fill="#FFF961"/>
<path d="M647.973 94.0052H651.303V111.793C651.303 114.197 650.578 116.077 649.129 117.434C647.691 118.791 645.771 119.47 643.367 119.47C640.871 119.47 638.927 118.832 637.535 117.555C636.144 116.278 635.448 114.49 635.448 112.189H638.76C638.76 113.627 639.151 114.749 639.934 115.554C640.727 116.359 641.872 116.761 643.367 116.761C644.736 116.761 645.84 116.33 646.679 115.467C647.53 114.605 647.962 113.397 647.973 111.844V94.0052ZM664.346 107.928C661.505 107.111 659.435 106.111 658.135 104.926C656.847 103.73 656.203 102.258 656.203 100.509C656.203 98.5311 656.991 96.8979 658.566 95.6097C660.154 94.31 662.212 93.6602 664.743 93.6602C666.468 93.6602 668.004 93.9937 669.349 94.6608C670.706 95.3279 671.753 96.248 672.489 97.4212C673.237 98.5944 673.611 99.8768 673.611 101.269H670.281C670.281 99.7503 669.798 98.5599 668.832 97.6973C667.866 96.8231 666.503 96.3861 664.743 96.3861C663.11 96.3861 661.833 96.7484 660.913 97.473C660.004 98.1861 659.55 99.181 659.55 100.458C659.55 101.481 659.981 102.35 660.844 103.063C661.718 103.764 663.196 104.409 665.278 104.995C667.371 105.582 669.004 106.232 670.177 106.945C671.362 107.646 672.236 108.469 672.8 109.412C673.375 110.355 673.662 111.465 673.662 112.742C673.662 114.777 672.869 116.411 671.282 117.641C669.694 118.86 667.572 119.47 664.915 119.47C663.19 119.47 661.58 119.142 660.085 118.487C658.589 117.82 657.433 116.911 656.617 115.761C655.812 114.611 655.409 113.305 655.409 111.844H658.739C658.739 113.363 659.297 114.565 660.412 115.45C661.54 116.324 663.041 116.761 664.915 116.761C666.664 116.761 668.004 116.405 668.935 115.692C669.867 114.979 670.333 114.007 670.333 112.776C670.333 111.545 669.901 110.596 669.039 109.929C668.176 109.251 666.612 108.584 664.346 107.928Z" fill="white"/>
<path d="M1191 156.667C1190.82 156.667 1190.67 156.614 1190.55 156.508C1190.44 156.384 1190.39 156.234 1190.39 156.057V138.753C1190.39 138.558 1190.44 138.408 1190.55 138.302C1190.67 138.178 1190.82 138.117 1191 138.117H1192.22C1192.54 138.117 1192.76 138.24 1192.88 138.488L1201.68 152.003V138.753C1201.68 138.558 1201.73 138.408 1201.84 138.302C1201.96 138.178 1202.11 138.117 1202.29 138.117H1203.56C1203.75 138.117 1203.9 138.178 1204.01 138.302C1204.13 138.408 1204.2 138.558 1204.2 138.753V156.031C1204.2 156.207 1204.13 156.357 1204.01 156.481C1203.9 156.605 1203.76 156.667 1203.59 156.667H1202.31C1202.05 156.667 1201.84 156.543 1201.68 156.296L1192.91 142.913V156.057C1192.91 156.234 1192.84 156.384 1192.72 156.508C1192.6 156.614 1192.45 156.667 1192.27 156.667H1191ZM1213.98 156.932C1212.16 156.932 1210.7 156.375 1209.61 155.262C1208.53 154.131 1207.94 152.594 1207.83 150.651L1207.81 149.75L1207.83 148.876C1207.96 146.968 1208.56 145.448 1209.64 144.318C1210.73 143.187 1212.17 142.622 1213.96 142.622C1215.92 142.622 1217.44 143.249 1218.51 144.503C1219.59 145.74 1220.13 147.418 1220.13 149.538V149.989C1220.13 150.165 1220.07 150.315 1219.94 150.439C1219.84 150.545 1219.7 150.598 1219.52 150.598H1210.35V150.837C1210.4 151.985 1210.75 152.965 1211.39 153.778C1212.04 154.573 1212.9 154.971 1213.96 154.971C1214.77 154.971 1215.43 154.812 1215.94 154.494C1216.47 154.158 1216.86 153.813 1217.11 153.46C1217.27 153.248 1217.38 153.124 1217.45 153.089C1217.54 153.036 1217.69 153.01 1217.9 153.01H1219.2C1219.36 153.01 1219.49 153.054 1219.6 153.142C1219.71 153.23 1219.76 153.354 1219.76 153.513C1219.76 153.902 1219.51 154.37 1219.02 154.918C1218.54 155.465 1217.86 155.942 1216.98 156.349C1216.11 156.737 1215.11 156.932 1213.98 156.932ZM1217.61 148.77V148.69C1217.61 147.471 1217.28 146.482 1216.61 145.722C1215.95 144.945 1215.07 144.556 1213.96 144.556C1212.84 144.556 1211.96 144.945 1211.31 145.722C1210.67 146.482 1210.35 147.471 1210.35 148.69V148.77H1217.61ZM1222.38 156.667C1222.24 156.667 1222.1 156.614 1221.98 156.508C1221.87 156.402 1221.82 156.269 1221.82 156.11C1221.82 155.951 1221.88 155.792 1222.01 155.633L1226.62 149.618L1222.3 143.92C1222.17 143.779 1222.11 143.62 1222.11 143.443C1222.11 143.284 1222.17 143.152 1222.27 143.046C1222.38 142.94 1222.51 142.887 1222.67 142.887H1224.02C1224.29 142.887 1224.52 143.028 1224.71 143.311L1228.23 147.895L1231.76 143.337C1231.86 143.196 1231.96 143.09 1232.05 143.019C1232.16 142.931 1232.29 142.887 1232.45 142.887H1233.75C1233.91 142.887 1234.04 142.94 1234.14 143.046C1234.25 143.152 1234.3 143.284 1234.3 143.443C1234.3 143.62 1234.24 143.779 1234.12 143.92L1229.74 149.671L1234.36 155.633C1234.48 155.792 1234.54 155.951 1234.54 156.11C1234.54 156.269 1234.49 156.402 1234.38 156.508C1234.28 156.614 1234.14 156.667 1233.98 156.667H1232.58C1232.32 156.667 1232.09 156.534 1231.89 156.269L1228.18 151.42L1224.42 156.269C1224.31 156.393 1224.21 156.49 1224.1 156.561C1224.01 156.631 1223.89 156.667 1223.73 156.667H1222.38ZM1242.68 156.667C1239.89 156.667 1238.49 155.112 1238.49 152.003V145.007H1236.42C1236.25 145.007 1236.1 144.954 1235.97 144.848C1235.87 144.724 1235.82 144.574 1235.82 144.397V143.496C1235.82 143.319 1235.87 143.178 1235.97 143.072C1236.1 142.948 1236.25 142.887 1236.42 142.887H1238.49V138.461C1238.49 138.284 1238.54 138.143 1238.65 138.037C1238.77 137.913 1238.92 137.852 1239.1 137.852H1240.35C1240.52 137.852 1240.66 137.913 1240.77 138.037C1240.89 138.143 1240.96 138.284 1240.96 138.461V142.887H1244.24C1244.42 142.887 1244.56 142.948 1244.67 143.072C1244.79 143.178 1244.85 143.319 1244.85 143.496V144.397C1244.85 144.574 1244.79 144.724 1244.67 144.848C1244.56 144.954 1244.42 145.007 1244.24 145.007H1240.96V151.817C1240.96 152.7 1241.11 153.372 1241.41 153.831C1241.71 154.273 1242.2 154.494 1242.89 154.494H1244.51C1244.68 154.494 1244.83 154.555 1244.93 154.679C1245.05 154.785 1245.12 154.926 1245.12 155.103V156.057C1245.12 156.234 1245.05 156.384 1244.93 156.508C1244.83 156.614 1244.68 156.667 1244.51 156.667H1242.68ZM1253.51 156.932C1251.58 156.932 1249.98 156.455 1248.71 155.501C1247.44 154.547 1246.77 153.151 1246.7 151.314C1246.7 151.155 1246.75 151.022 1246.86 150.916C1246.96 150.792 1247.1 150.731 1247.28 150.731H1248.71C1249.08 150.731 1249.31 150.934 1249.4 151.34C1249.51 152.471 1249.94 153.31 1250.7 153.858C1251.46 154.405 1252.41 154.679 1253.56 154.679C1254.89 154.679 1255.9 154.246 1256.61 153.381C1257.33 152.497 1257.69 151.314 1257.69 149.83V140.422H1248.29C1248.11 140.422 1247.96 140.369 1247.84 140.263C1247.73 140.139 1247.68 139.989 1247.68 139.813V138.726C1247.68 138.549 1247.73 138.408 1247.84 138.302C1247.96 138.178 1248.11 138.117 1248.29 138.117H1259.71C1259.9 138.117 1260.05 138.178 1260.16 138.302C1260.28 138.408 1260.34 138.558 1260.34 138.753V149.883C1260.34 152.038 1259.73 153.752 1258.52 155.024C1257.31 156.296 1255.64 156.932 1253.51 156.932ZM1270.75 156.932C1269.29 156.932 1268.01 156.702 1266.94 156.243C1265.88 155.783 1265.06 155.183 1264.5 154.441C1263.93 153.681 1263.63 152.868 1263.6 152.003C1263.6 151.861 1263.65 151.738 1263.76 151.632C1263.88 151.508 1264.02 151.446 1264.18 151.446H1265.53C1265.87 151.446 1266.1 151.623 1266.22 151.976C1266.38 152.718 1266.83 153.354 1267.57 153.884C1268.33 154.414 1269.39 154.679 1270.75 154.679C1272.22 154.679 1273.32 154.423 1274.07 153.911C1274.81 153.381 1275.18 152.647 1275.18 151.711C1275.18 151.11 1274.99 150.625 1274.62 150.254C1274.27 149.883 1273.74 149.556 1273.03 149.273C1272.33 148.99 1271.27 148.637 1269.85 148.213C1268.47 147.824 1267.38 147.409 1266.57 146.968C1265.75 146.526 1265.14 145.978 1264.74 145.325C1264.33 144.671 1264.13 143.849 1264.13 142.86C1264.13 141.906 1264.38 141.049 1264.9 140.29C1265.43 139.53 1266.18 138.938 1267.15 138.514C1268.12 138.072 1269.28 137.852 1270.62 137.852C1272 137.852 1273.18 138.099 1274.17 138.594C1275.16 139.071 1275.91 139.68 1276.42 140.422C1276.94 141.164 1277.21 141.906 1277.25 142.648C1277.25 142.789 1277.19 142.913 1277.09 143.019C1277 143.125 1276.87 143.178 1276.69 143.178H1275.28C1274.91 143.178 1274.68 143.01 1274.6 142.675C1274.49 141.933 1274.07 141.323 1273.35 140.846C1272.63 140.351 1271.72 140.104 1270.62 140.104C1269.42 140.104 1268.47 140.334 1267.79 140.793C1267.1 141.252 1266.75 141.933 1266.75 142.834C1266.75 143.434 1266.91 143.929 1267.23 144.318C1267.56 144.706 1268.07 145.051 1268.74 145.351C1269.41 145.634 1270.39 145.961 1271.68 146.332C1273.18 146.738 1274.37 147.162 1275.23 147.604C1276.1 148.028 1276.74 148.566 1277.17 149.22C1277.59 149.856 1277.8 150.669 1277.8 151.658C1277.8 153.301 1277.17 154.591 1275.89 155.527C1274.62 156.463 1272.91 156.932 1270.75 156.932Z" fill="white"/>
<g clip-path="url(#clip1)">
<path d="M1258.5 60H1206.92C1203.29 60 1200.34 63.0125 1200.34 66.7285V119.521C1200.34 123.238 1203.29 126.25 1206.92 126.25H1258.5C1262.13 126.25 1265.08 123.238 1265.08 119.521V66.7285C1265.08 63.0125 1262.13 60 1258.5 60Z" fill="url(#paint0_linear)"/>
<g filter="url(#filter0_d)">
<path d="M1230.35 85.5373H1221.8V91.6913M1221.8 91.6913H1229.98M1221.8 91.6913V98.5854H1230.35" stroke="#030517" stroke-width="0.522039"/>
<path d="M1209.62 98.6631H1210.35V86.3602H1210.79L1224.53 106.489L1210.79 85.1646H1209.62V98.6631V98.6631ZM1233.07 98.7718H1232.16L1245.99 79.7611L1233.07 98.7718Z" fill="#030517"/>
<path d="M1241.99 98.9581L1232.53 85.1647H1233.26L1242.9 98.9581H1241.99ZM1250.71 85.91V98.7718H1250.17V85.91H1245.26V85.351H1255.81V85.91H1250.71Z" fill="#030517"/>
</g>
</g>
<path d="M1051.87 156.667C1051.7 156.667 1051.55 156.614 1051.42 156.508C1051.32 156.384 1051.26 156.234 1051.26 156.057V138.753C1051.26 138.558 1051.32 138.408 1051.42 138.302C1051.55 138.178 1051.7 138.117 1051.87 138.117H1058.34C1060.37 138.117 1061.96 138.594 1063.11 139.548C1064.26 140.502 1064.83 141.88 1064.83 143.682C1064.83 145.024 1064.5 146.128 1063.82 146.994C1063.17 147.86 1062.24 148.46 1061.04 148.796L1065.12 155.845C1065.18 155.951 1065.2 156.048 1065.2 156.137C1065.2 156.278 1065.14 156.402 1065.02 156.508C1064.91 156.614 1064.79 156.667 1064.65 156.667H1063.37C1063.11 156.667 1062.9 156.605 1062.74 156.481C1062.6 156.357 1062.46 156.181 1062.34 155.951L1058.5 149.22H1053.86V156.057C1053.86 156.234 1053.8 156.384 1053.68 156.508C1053.55 156.614 1053.4 156.667 1053.22 156.667H1051.87ZM1058.23 146.968C1060.87 146.968 1062.18 145.863 1062.18 143.655C1062.18 141.447 1060.87 140.343 1058.23 140.343H1053.86V146.968H1058.23ZM1073.64 156.932C1071.82 156.932 1070.36 156.375 1069.27 155.262C1068.19 154.131 1067.6 152.594 1067.49 150.651L1067.47 149.75L1067.49 148.876C1067.62 146.968 1068.22 145.448 1069.29 144.318C1070.39 143.187 1071.83 142.622 1073.61 142.622C1075.58 142.622 1077.09 143.249 1078.17 144.503C1079.25 145.74 1079.79 147.418 1079.79 149.538V149.989C1079.79 150.165 1079.73 150.315 1079.6 150.439C1079.5 150.545 1079.36 150.598 1079.18 150.598H1070.01V150.837C1070.06 151.985 1070.41 152.965 1071.04 153.778C1071.7 154.573 1072.55 154.971 1073.61 154.971C1074.43 154.971 1075.09 154.812 1075.6 154.494C1076.13 154.158 1076.52 153.813 1076.77 153.46C1076.93 153.248 1077.04 153.124 1077.11 153.089C1077.2 153.036 1077.35 153.01 1077.56 153.01H1078.86C1079.02 153.01 1079.15 153.054 1079.26 153.142C1079.36 153.23 1079.42 153.354 1079.42 153.513C1079.42 153.902 1079.17 154.37 1078.68 154.918C1078.2 155.465 1077.52 155.942 1076.64 156.349C1075.77 156.737 1074.77 156.932 1073.64 156.932ZM1077.27 148.77V148.69C1077.27 147.471 1076.94 146.482 1076.26 145.722C1075.61 144.945 1074.73 144.556 1073.61 144.556C1072.5 144.556 1071.62 144.945 1070.96 145.722C1070.33 146.482 1070.01 147.471 1070.01 148.69V148.77H1077.27ZM1086.8 156.932C1085.93 156.932 1085.13 156.755 1084.39 156.402C1083.65 156.048 1083.05 155.571 1082.61 154.971C1082.19 154.352 1081.98 153.672 1081.98 152.93C1081.98 151.764 1082.45 150.81 1083.41 150.068C1084.38 149.308 1085.69 148.814 1087.33 148.584L1091.28 148.028V147.259C1091.28 145.457 1090.24 144.556 1088.18 144.556C1087.4 144.556 1086.76 144.724 1086.27 145.06C1085.78 145.378 1085.4 145.757 1085.16 146.199C1085.1 146.358 1085.03 146.473 1084.94 146.544C1084.87 146.614 1084.77 146.65 1084.63 146.65H1083.49C1083.33 146.65 1083.19 146.597 1083.06 146.491C1082.96 146.367 1082.9 146.226 1082.9 146.067C1082.92 145.643 1083.12 145.166 1083.49 144.636C1083.88 144.088 1084.47 143.62 1085.26 143.231C1086.06 142.825 1087.04 142.622 1088.2 142.622C1090.18 142.622 1091.61 143.09 1092.47 144.026C1093.34 144.945 1093.77 146.093 1093.77 147.471V156.057C1093.77 156.234 1093.71 156.384 1093.58 156.508C1093.48 156.614 1093.34 156.667 1093.16 156.667H1091.94C1091.76 156.667 1091.61 156.614 1091.49 156.508C1091.38 156.384 1091.33 156.234 1091.33 156.057V154.918C1090.94 155.483 1090.38 155.96 1089.64 156.349C1088.89 156.737 1087.95 156.932 1086.8 156.932ZM1087.36 154.944C1088.5 154.944 1089.44 154.573 1090.17 153.831C1090.91 153.071 1091.28 151.985 1091.28 150.572V149.83L1088.2 150.28C1086.95 150.457 1086 150.757 1085.37 151.181C1084.73 151.587 1084.41 152.109 1084.41 152.745C1084.41 153.451 1084.71 153.999 1085.29 154.388C1085.87 154.759 1086.56 154.944 1087.36 154.944ZM1103.14 156.932C1101.25 156.932 1099.77 156.402 1098.69 155.342C1097.63 154.264 1097.07 152.762 1097 150.837L1096.97 149.777L1097 148.717C1097.07 146.791 1097.63 145.298 1098.69 144.238C1099.77 143.16 1101.25 142.622 1103.14 142.622C1104.42 142.622 1105.49 142.851 1106.38 143.311C1107.26 143.77 1107.91 144.335 1108.34 145.007C1108.78 145.678 1109.02 146.349 1109.05 147.021C1109.07 147.197 1109.02 147.339 1108.89 147.445C1108.77 147.551 1108.62 147.604 1108.44 147.604H1107.17C1107 147.604 1106.86 147.568 1106.77 147.498C1106.69 147.427 1106.6 147.286 1106.51 147.074C1106.21 146.226 1105.79 145.625 1105.24 145.272C1104.69 144.901 1104 144.715 1103.17 144.715C1102.08 144.715 1101.2 145.06 1100.55 145.749C1099.91 146.42 1099.57 147.453 1099.51 148.849L1099.49 149.803L1099.51 150.704C1099.57 152.117 1099.91 153.16 1100.55 153.831C1101.18 154.502 1102.06 154.838 1103.17 154.838C1104 154.838 1104.69 154.661 1105.24 154.308C1105.79 153.937 1106.21 153.328 1106.51 152.48C1106.6 152.268 1106.69 152.126 1106.77 152.056C1106.86 151.967 1107 151.923 1107.17 151.923H1108.44C1108.62 151.923 1108.77 151.985 1108.89 152.109C1109.02 152.215 1109.07 152.356 1109.05 152.533C1109.02 153.186 1108.78 153.858 1108.34 154.547C1107.91 155.218 1107.26 155.783 1106.38 156.243C1105.51 156.702 1104.43 156.932 1103.14 156.932ZM1117.58 156.667C1114.79 156.667 1113.39 155.112 1113.39 152.003V145.007H1111.33C1111.15 145.007 1111 144.954 1110.88 144.848C1110.77 144.724 1110.72 144.574 1110.72 144.397V143.496C1110.72 143.319 1110.77 143.178 1110.88 143.072C1111 142.948 1111.15 142.887 1111.33 142.887H1113.39V138.461C1113.39 138.284 1113.45 138.143 1113.55 138.037C1113.68 137.913 1113.83 137.852 1114 137.852H1115.25C1115.42 137.852 1115.57 137.913 1115.67 138.037C1115.8 138.143 1115.86 138.284 1115.86 138.461V142.887H1119.14C1119.32 142.887 1119.46 142.948 1119.57 143.072C1119.69 143.178 1119.75 143.319 1119.75 143.496V144.397C1119.75 144.574 1119.69 144.724 1119.57 144.848C1119.46 144.954 1119.32 145.007 1119.14 145.007H1115.86V151.817C1115.86 152.7 1116.01 153.372 1116.31 153.831C1116.61 154.273 1117.1 154.494 1117.79 154.494H1119.41C1119.59 154.494 1119.73 154.555 1119.83 154.679C1119.96 154.785 1120.02 154.926 1120.02 155.103V156.057C1120.02 156.234 1119.96 156.384 1119.83 156.508C1119.73 156.614 1119.59 156.667 1119.41 156.667H1117.58ZM1128.41 156.932C1126.48 156.932 1124.88 156.455 1123.61 155.501C1122.34 154.547 1121.67 153.151 1121.6 151.314C1121.6 151.155 1121.65 151.022 1121.76 150.916C1121.86 150.792 1122 150.731 1122.18 150.731H1123.61C1123.98 150.731 1124.21 150.934 1124.3 151.34C1124.41 152.471 1124.84 153.31 1125.6 153.858C1126.36 154.405 1127.31 154.679 1128.46 154.679C1129.79 154.679 1130.8 154.246 1131.51 153.381C1132.23 152.497 1132.6 151.314 1132.6 149.83V140.422H1123.19C1123.01 140.422 1122.86 140.369 1122.74 140.263C1122.63 140.139 1122.58 139.989 1122.58 139.813V138.726C1122.58 138.549 1122.63 138.408 1122.74 138.302C1122.86 138.178 1123.01 138.117 1123.19 138.117H1134.61C1134.8 138.117 1134.95 138.178 1135.06 138.302C1135.18 138.408 1135.25 138.558 1135.25 138.753V149.883C1135.25 152.038 1134.64 153.752 1133.42 155.024C1132.22 156.296 1130.55 156.932 1128.41 156.932ZM1145.65 156.932C1144.19 156.932 1142.92 156.702 1141.84 156.243C1140.78 155.783 1139.97 155.183 1139.4 154.441C1138.84 153.681 1138.53 152.868 1138.5 152.003C1138.5 151.861 1138.55 151.738 1138.66 151.632C1138.78 151.508 1138.92 151.446 1139.08 151.446H1140.43C1140.77 151.446 1141 151.623 1141.12 151.976C1141.28 152.718 1141.73 153.354 1142.47 153.884C1143.23 154.414 1144.29 154.679 1145.65 154.679C1147.12 154.679 1148.23 154.423 1148.97 153.911C1149.71 153.381 1150.08 152.647 1150.08 151.711C1150.08 151.11 1149.89 150.625 1149.52 150.254C1149.17 149.883 1148.64 149.556 1147.93 149.273C1147.23 148.99 1146.17 148.637 1144.75 148.213C1143.38 147.824 1142.28 147.409 1141.47 146.968C1140.65 146.526 1140.05 145.978 1139.64 145.325C1139.23 144.671 1139.03 143.849 1139.03 142.86C1139.03 141.906 1139.29 141.049 1139.8 140.29C1140.33 139.53 1141.08 138.938 1142.05 138.514C1143.02 138.072 1144.18 137.852 1145.52 137.852C1146.9 137.852 1148.08 138.099 1149.07 138.594C1150.06 139.071 1150.81 139.68 1151.33 140.422C1151.84 141.164 1152.11 141.906 1152.15 142.648C1152.15 142.789 1152.09 142.913 1151.99 143.019C1151.9 143.125 1151.77 143.178 1151.59 143.178H1150.19C1149.82 143.178 1149.59 143.01 1149.5 142.675C1149.39 141.933 1148.98 141.323 1148.25 140.846C1147.53 140.351 1146.62 140.104 1145.52 140.104C1144.32 140.104 1143.38 140.334 1142.69 140.793C1142 141.252 1141.65 141.933 1141.65 142.834C1141.65 143.434 1141.81 143.929 1142.13 144.318C1142.47 144.706 1142.97 145.051 1143.64 145.351C1144.31 145.634 1145.29 145.961 1146.58 146.332C1148.08 146.738 1149.27 147.162 1150.13 147.604C1151 148.028 1151.64 148.566 1152.07 149.22C1152.49 149.856 1152.7 150.669 1152.7 151.658C1152.7 153.301 1152.07 154.591 1150.8 155.527C1149.52 156.463 1147.81 156.932 1145.65 156.932Z" fill="white"/>
<rect x="1066.62" y="60" width="66.25" height="66.25" rx="11.0417" fill="#007ACC"/>
<path d="M1099.75 96.9665C1101.89 96.9665 1103.63 95.2285 1103.63 93.0846C1103.63 90.9407 1101.89 89.2028 1099.75 89.2028C1097.61 89.2028 1095.87 90.9407 1095.87 93.0846C1095.87 95.2285 1097.61 96.9665 1099.75 96.9665Z" fill="white"/>
<path d="M1099.75 101.985C1095.08 102.098 1090.43 101.469 1085.96 100.122C1083.9 99.4673 1081.97 98.4365 1080.28 97.0813C1079.64 96.6184 1079.1 96.0215 1078.71 95.3316C1078.32 94.6418 1078.08 93.8752 1078.01 93.0846C1078.01 90.5179 1080.83 88.0025 1085.55 86.3566C1090.14 84.8982 1094.94 84.1914 1099.75 84.2635C1104.5 84.1972 1109.23 84.8912 1113.76 86.3193C1115.75 86.9531 1117.61 87.9341 1119.25 89.2167C1119.89 89.6581 1120.41 90.2334 1120.8 90.9018C1121.19 91.5702 1121.42 92.3154 1121.49 93.0846C1121.49 95.7522 1118.34 98.4555 1113.26 100.136C1108.88 101.439 1104.32 102.063 1099.75 101.985V101.985ZM1099.75 86.1206C1095.14 86.059 1090.56 86.731 1086.17 88.1112C1081.82 89.6282 1079.87 91.7027 1079.87 93.0799C1079.87 94.5209 1081.96 96.7863 1086.56 98.3592C1090.84 99.6416 1095.29 100.239 1099.75 100.128C1104.12 100.206 1108.48 99.6143 1112.68 98.3732C1117.45 96.791 1119.62 94.5224 1119.62 93.0846C1119.55 92.5912 1119.37 92.1194 1119.1 91.699C1118.83 91.2786 1118.47 90.9187 1118.06 90.6422C1116.58 89.5042 1114.92 88.6348 1113.15 88.0739C1108.81 86.7134 1104.29 86.0539 1099.75 86.1206V86.1206Z" fill="white"/>
<path d="M1090.93 112.446C1090.21 112.462 1089.49 112.287 1088.86 111.936C1086.63 110.654 1085.86 106.955 1086.8 102.041C1087.82 97.3377 1089.61 92.832 1092.07 88.6982C1094.39 84.551 1097.35 80.8008 1100.85 77.5899C1102.39 76.1842 1104.17 75.0629 1106.11 74.2779C1106.81 73.9502 1107.57 73.7803 1108.34 73.7803C1109.11 73.7803 1109.88 73.9502 1110.58 74.2779C1112.89 75.6102 1113.65 79.6907 1112.57 84.9281C1111.51 89.376 1109.78 93.635 1107.43 97.5565C1105.19 101.655 1102.32 105.372 1098.92 108.57C1097.32 110.031 1095.47 111.183 1093.45 111.969C1092.64 112.269 1091.79 112.43 1090.93 112.446V112.446ZM1093.68 89.6205C1091.33 93.5789 1089.62 97.8868 1088.62 102.382C1087.76 106.909 1088.59 109.631 1089.79 110.323C1091.03 111.042 1094.04 110.36 1097.7 107.162C1100.95 104.098 1103.69 100.54 1105.82 96.6186C1108.07 92.8696 1109.74 88.7977 1110.76 84.5446C1111.78 79.6147 1110.9 76.5961 1109.65 75.8788C1109.19 75.6999 1108.69 75.6199 1108.19 75.6437C1107.69 75.6675 1107.2 75.7946 1106.75 76.017C1105.03 76.7271 1103.45 77.7353 1102.08 78.9951C1098.74 82.0708 1095.9 85.6609 1093.69 89.6298L1093.68 89.6205Z" fill="white"/>
<path d="M1108.56 112.466C1106.46 112.466 1103.79 111.193 1101.01 108.8C1097.45 105.56 1094.43 101.765 1092.08 97.5627C1089.65 93.4858 1087.88 89.0452 1086.84 84.4095C1086.4 82.3699 1086.31 80.2671 1086.6 78.1985C1086.66 77.4312 1086.9 76.6877 1087.28 76.0205C1087.67 75.3532 1088.19 74.7785 1088.82 74.3369C1091.13 73 1095.05 74.3742 1099.05 77.9237C1102.37 81.0636 1105.2 84.6947 1107.42 88.6904C1109.85 92.6721 1111.64 97.0154 1112.71 101.558C1113.18 103.672 1113.25 105.855 1112.93 107.996C1112.85 108.785 1112.6 109.548 1112.2 110.233C1111.8 110.918 1111.26 111.508 1110.61 111.963C1109.98 112.309 1109.28 112.482 1108.56 112.466V112.466ZM1093.69 96.6279C1095.94 100.644 1098.82 104.276 1102.22 107.387C1105.71 110.391 1108.48 111.037 1109.67 110.337C1110.91 109.615 1111.83 106.668 1110.88 101.899C1109.85 97.5626 1108.14 93.4167 1105.81 89.6158C1103.68 85.7916 1100.99 82.3146 1097.82 79.3056C1094.05 75.9642 1091 75.2173 1089.76 75.9378C1089.37 76.2528 1089.05 76.6448 1088.82 77.0889C1088.59 77.5331 1088.46 78.0199 1088.43 78.5184C1088.18 80.3632 1088.26 82.2371 1088.67 84.0539C1089.66 88.4872 1091.36 92.7331 1093.69 96.6311L1093.69 96.6279Z" fill="white"/>
<path d="M751.54 156.667C751.363 156.667 751.213 156.614 751.09 156.508C750.984 156.384 750.931 156.234 750.931 156.057V138.753C750.931 138.558 750.984 138.408 751.09 138.302C751.213 138.178 751.363 138.117 751.54 138.117H752.759C753.077 138.117 753.298 138.24 753.422 138.488L762.22 152.003V138.753C762.22 138.558 762.273 138.408 762.379 138.302C762.502 138.178 762.652 138.117 762.829 138.117H764.101C764.295 138.117 764.446 138.178 764.552 138.302C764.675 138.408 764.737 138.558 764.737 138.753V156.031C764.737 156.207 764.675 156.357 764.552 156.481C764.446 156.605 764.304 156.667 764.128 156.667H762.856C762.591 156.667 762.379 156.543 762.22 156.296L753.448 142.913V156.057C753.448 156.234 753.386 156.384 753.263 156.508C753.139 156.614 752.989 156.667 752.812 156.667H751.54ZM774.656 156.932C772.713 156.932 771.202 156.384 770.125 155.289C769.065 154.193 768.499 152.736 768.429 150.916L768.402 149.777L768.429 148.637C768.499 146.835 769.074 145.386 770.151 144.291C771.229 143.178 772.731 142.622 774.656 142.622C776.582 142.622 778.084 143.178 779.161 144.291C780.239 145.386 780.813 146.835 780.884 148.637C780.901 148.831 780.91 149.211 780.91 149.777C780.91 150.342 780.901 150.722 780.884 150.916C780.813 152.736 780.239 154.193 779.161 155.289C778.101 156.384 776.6 156.932 774.656 156.932ZM774.656 154.891C775.769 154.891 776.644 154.538 777.28 153.831C777.933 153.124 778.287 152.109 778.34 150.784C778.357 150.607 778.366 150.271 778.366 149.777C778.366 149.282 778.357 148.946 778.34 148.77C778.287 147.445 777.933 146.429 777.28 145.722C776.644 145.015 775.769 144.662 774.656 144.662C773.543 144.662 772.66 145.015 772.006 145.722C771.353 146.429 771.008 147.445 770.973 148.77L770.946 149.777L770.973 150.784C771.008 152.109 771.353 153.124 772.006 153.831C772.66 154.538 773.543 154.891 774.656 154.891ZM789.264 156.932C787.426 156.932 786.039 156.331 785.103 155.13C784.167 153.928 783.672 152.409 783.619 150.572L783.593 149.777L783.619 148.982C783.672 147.162 784.167 145.651 785.103 144.45C786.039 143.231 787.426 142.622 789.264 142.622C791.083 142.622 792.514 143.266 793.557 144.556V138.461C793.557 138.284 793.61 138.143 793.716 138.037C793.839 137.913 793.989 137.852 794.166 137.852H795.438C795.615 137.852 795.756 137.913 795.862 138.037C795.986 138.143 796.048 138.284 796.048 138.461V156.057C796.048 156.234 795.986 156.384 795.862 156.508C795.756 156.614 795.615 156.667 795.438 156.667H794.246C794.069 156.667 793.919 156.614 793.795 156.508C793.689 156.384 793.636 156.234 793.636 156.057V154.944C792.611 156.269 791.154 156.932 789.264 156.932ZM789.82 154.785C791.039 154.785 791.949 154.388 792.55 153.593C793.168 152.78 793.504 151.817 793.557 150.704C793.574 150.51 793.583 150.174 793.583 149.697C793.583 149.202 793.574 148.858 793.557 148.664C793.521 147.621 793.186 146.711 792.55 145.934C791.914 145.157 791.004 144.768 789.82 144.768C788.566 144.768 787.647 145.157 787.064 145.934C786.499 146.711 786.19 147.736 786.137 149.008L786.11 149.777C786.11 153.116 787.347 154.785 789.82 154.785ZM805.501 156.932C803.681 156.932 802.224 156.375 801.128 155.262C800.051 154.131 799.459 152.594 799.353 150.651L799.326 149.75L799.353 148.876C799.476 146.968 800.077 145.448 801.155 144.318C802.25 143.187 803.69 142.622 805.474 142.622C807.435 142.622 808.955 143.249 810.032 144.503C811.11 145.74 811.649 147.418 811.649 149.538V149.989C811.649 150.165 811.587 150.315 811.463 150.439C811.357 150.545 811.216 150.598 811.039 150.598H801.87V150.837C801.923 151.985 802.268 152.965 802.904 153.778C803.557 154.573 804.414 154.971 805.474 154.971C806.287 154.971 806.949 154.812 807.462 154.494C807.992 154.158 808.38 153.813 808.628 153.46C808.787 153.248 808.902 153.124 808.972 153.089C809.061 153.036 809.211 153.01 809.423 153.01H810.721C810.88 153.01 811.013 153.054 811.119 153.142C811.225 153.23 811.278 153.354 811.278 153.513C811.278 153.902 811.03 154.37 810.536 154.918C810.059 155.465 809.379 155.942 808.495 156.349C807.63 156.737 806.631 156.932 805.501 156.932ZM809.131 148.77V148.69C809.131 147.471 808.796 146.482 808.124 145.722C807.471 144.945 806.587 144.556 805.474 144.556C804.361 144.556 803.478 144.945 802.824 145.722C802.188 146.482 801.87 147.471 801.87 148.69V148.77H809.131ZM820.674 156.932C818.748 156.932 817.149 156.455 815.877 155.501C814.605 154.547 813.934 153.151 813.863 151.314C813.863 151.155 813.916 151.022 814.022 150.916C814.128 150.792 814.27 150.731 814.446 150.731H815.877C816.248 150.731 816.478 150.934 816.566 151.34C816.672 152.471 817.105 153.31 817.865 153.858C818.625 154.405 819.579 154.679 820.727 154.679C822.052 154.679 823.068 154.246 823.774 153.381C824.499 152.497 824.861 151.314 824.861 149.83V140.422H815.453C815.277 140.422 815.127 140.369 815.003 140.263C814.897 140.139 814.844 139.989 814.844 139.813V138.726C814.844 138.549 814.897 138.408 815.003 138.302C815.127 138.178 815.277 138.117 815.453 138.117H826.875C827.069 138.117 827.219 138.178 827.325 138.302C827.449 138.408 827.511 138.558 827.511 138.753V149.883C827.511 152.038 826.901 153.752 825.682 155.024C824.481 156.296 822.812 156.932 820.674 156.932ZM837.92 156.932C836.454 156.932 835.182 156.702 834.104 156.243C833.044 155.783 832.231 155.183 831.666 154.441C831.101 153.681 830.8 152.868 830.765 152.003C830.765 151.861 830.818 151.738 830.924 151.632C831.048 151.508 831.189 151.446 831.348 151.446H832.699C833.035 151.446 833.265 151.623 833.388 151.976C833.547 152.718 833.998 153.354 834.74 153.884C835.5 154.414 836.56 154.679 837.92 154.679C839.386 154.679 840.49 154.423 841.232 153.911C841.974 153.381 842.345 152.647 842.345 151.711C842.345 151.11 842.16 150.625 841.789 150.254C841.436 149.883 840.906 149.556 840.199 149.273C839.492 148.99 838.432 148.637 837.019 148.213C835.641 147.824 834.546 147.409 833.733 146.968C832.92 146.526 832.311 145.978 831.904 145.325C831.498 144.671 831.295 143.849 831.295 142.86C831.295 141.906 831.551 141.049 832.063 140.29C832.593 139.53 833.344 138.938 834.316 138.514C835.288 138.072 836.445 137.852 837.787 137.852C839.165 137.852 840.349 138.099 841.338 138.594C842.328 139.071 843.079 139.68 843.591 140.422C844.103 141.164 844.377 141.906 844.412 142.648C844.412 142.789 844.359 142.913 844.253 143.019C844.165 143.125 844.033 143.178 843.856 143.178H842.451C842.08 143.178 841.851 143.01 841.762 142.675C841.656 141.933 841.241 141.323 840.517 140.846C839.793 140.351 838.883 140.104 837.787 140.104C836.586 140.104 835.641 140.334 834.952 140.793C834.263 141.252 833.918 141.933 833.918 142.834C833.918 143.434 834.077 143.929 834.395 144.318C834.731 144.706 835.235 145.051 835.906 145.351C836.577 145.634 837.558 145.961 838.847 146.332C840.349 146.738 841.533 147.162 842.398 147.604C843.264 148.028 843.909 148.566 844.333 149.22C844.757 149.856 844.969 150.669 844.969 151.658C844.969 153.301 844.333 154.591 843.061 155.527C841.789 156.463 840.075 156.932 837.92 156.932Z" fill="white"/>
<rect x="764.083" y="60" width="66.25" height="66.25" rx="11.0417" fill="#539E43"/>
<path d="M796.866 117.799C796.191 117.799 795.561 117.619 794.976 117.304L788.989 113.75C788.089 113.256 788.539 113.076 788.809 112.986C790.024 112.581 790.249 112.491 791.509 111.771C791.645 111.681 791.825 111.726 791.96 111.816L796.551 114.56C796.731 114.65 796.956 114.65 797.091 114.56L815.051 104.169C815.231 104.079 815.321 103.899 815.321 103.674V82.9358C815.321 82.7109 815.231 82.5309 815.051 82.441L797.091 72.0944C796.911 72.0045 796.686 72.0045 796.551 72.0944L778.591 82.4411C778.411 82.5311 778.321 82.756 778.321 82.936V103.674C778.321 103.854 778.411 104.079 778.591 104.169L783.497 107.003C786.153 108.352 787.818 106.778 787.818 105.203V84.7351C787.818 84.4652 788.044 84.1953 788.359 84.1953H790.654C790.924 84.1953 791.195 84.4202 791.195 84.7351V105.203C791.195 108.757 789.259 110.826 785.883 110.826C784.848 110.826 784.037 110.826 781.742 109.702L777.015 107.003C775.845 106.328 775.125 105.068 775.125 103.719V82.9809C775.125 81.6315 775.845 80.3719 777.015 79.697L794.976 69.3057C796.101 68.6759 797.631 68.6759 798.756 69.3057L816.717 79.697C817.887 80.3718 818.607 81.6313 818.607 82.9809V103.719C818.607 105.068 817.887 106.328 816.717 107.003L798.756 117.394C798.171 117.664 797.496 117.799 796.866 117.799V117.799ZM802.403 103.539C794.525 103.539 792.905 99.9401 792.905 96.8811C792.905 96.6112 793.13 96.3413 793.445 96.3413H795.786C796.056 96.3413 796.281 96.5213 796.281 96.7912C796.641 99.1753 797.676 100.345 802.448 100.345C806.229 100.345 807.849 99.4903 807.849 97.4661C807.849 96.2964 807.399 95.4417 801.502 94.8567C796.596 94.3619 793.535 93.2823 793.535 89.3688C793.535 85.7249 796.596 83.5657 801.727 83.5657C807.489 83.5657 810.325 85.545 810.685 89.8635C810.685 89.9984 810.64 90.1334 810.55 90.2683C810.46 90.3583 810.325 90.4483 810.19 90.4483H807.849C807.624 90.4483 807.399 90.2683 807.354 90.0434C806.814 87.5694 805.418 86.7597 801.727 86.7597C797.586 86.7597 797.091 88.1991 797.091 89.2787C797.091 90.5834 797.676 90.988 803.258 91.7078C808.794 92.4275 811.405 93.4623 811.405 97.331C811.36 101.29 808.119 103.539 802.403 103.539V103.539Z" fill="white"/>
<path d="M1118.64 217C1118.48 217 1118.34 216.952 1118.23 216.856C1118.14 216.744 1118.09 216.608 1118.09 216.448V200.776C1118.09 200.6 1118.14 200.464 1118.23 200.368C1118.34 200.256 1118.48 200.2 1118.64 200.2H1119.84C1120.1 200.2 1120.3 200.328 1120.46 200.584L1125.53 210.28L1130.64 200.584C1130.67 200.488 1130.74 200.4 1130.83 200.32C1130.94 200.24 1131.08 200.2 1131.24 200.2H1132.42C1132.59 200.2 1132.73 200.256 1132.82 200.368C1132.94 200.464 1132.99 200.6 1132.99 200.776V216.448C1132.99 216.608 1132.94 216.744 1132.82 216.856C1132.71 216.952 1132.58 217 1132.42 217H1131.24C1131.08 217 1130.94 216.952 1130.83 216.856C1130.74 216.744 1130.69 216.608 1130.69 216.448V204.64L1126.68 212.464C1126.52 212.8 1126.26 212.968 1125.91 212.968H1125.17C1124.82 212.968 1124.56 212.8 1124.4 212.464L1120.37 204.64V216.448C1120.37 216.608 1120.31 216.744 1120.2 216.856C1120.1 216.952 1119.98 217 1119.82 217H1118.64ZM1141.49 217.24C1139.97 217.24 1138.79 216.752 1137.96 215.776C1137.13 214.784 1136.71 213.472 1136.71 211.84V205.072C1136.71 204.912 1136.76 204.784 1136.85 204.688C1136.97 204.576 1137.1 204.52 1137.26 204.52H1138.46C1138.62 204.52 1138.75 204.576 1138.85 204.688C1138.96 204.784 1139.01 204.912 1139.01 205.072V211.72C1139.01 214.104 1140.05 215.296 1142.13 215.296C1143.14 215.296 1143.94 214.984 1144.53 214.36C1145.13 213.72 1145.42 212.84 1145.42 211.72V205.072C1145.42 204.912 1145.47 204.784 1145.57 204.688C1145.68 204.576 1145.81 204.52 1145.97 204.52H1147.17C1147.33 204.52 1147.46 204.576 1147.56 204.688C1147.65 204.784 1147.7 204.912 1147.7 205.072V216.448C1147.7 216.608 1147.65 216.744 1147.56 216.856C1147.46 216.952 1147.33 217 1147.17 217H1146.05C1145.89 217 1145.75 216.952 1145.64 216.856C1145.54 216.744 1145.49 216.608 1145.49 216.448V215.392C1145.05 216 1144.5 216.464 1143.86 216.784C1143.22 217.088 1142.43 217.24 1141.49 217.24ZM1156.31 217.24C1154.6 217.24 1153.25 216.76 1152.28 215.8C1151.32 214.824 1150.8 213.464 1150.74 211.72L1150.72 210.76L1150.74 209.8C1150.8 208.056 1151.32 206.704 1152.28 205.744C1153.25 204.768 1154.6 204.28 1156.31 204.28C1157.46 204.28 1158.44 204.488 1159.24 204.904C1160.04 205.32 1160.63 205.832 1161.01 206.44C1161.41 207.048 1161.63 207.656 1161.66 208.264C1161.68 208.424 1161.63 208.552 1161.52 208.648C1161.4 208.744 1161.27 208.792 1161.11 208.792H1159.96C1159.8 208.792 1159.68 208.76 1159.6 208.696C1159.52 208.632 1159.44 208.504 1159.36 208.312C1159.08 207.544 1158.7 207 1158.2 206.68C1157.71 206.344 1157.08 206.176 1156.33 206.176C1155.34 206.176 1154.55 206.488 1153.96 207.112C1153.38 207.72 1153.07 208.656 1153.02 209.92L1153 210.784L1153.02 211.6C1153.07 212.88 1153.38 213.824 1153.96 214.432C1154.53 215.04 1155.32 215.344 1156.33 215.344C1157.08 215.344 1157.71 215.184 1158.2 214.864C1158.7 214.528 1159.08 213.976 1159.36 213.208C1159.44 213.016 1159.52 212.888 1159.6 212.824C1159.68 212.744 1159.8 212.704 1159.96 212.704H1161.11C1161.27 212.704 1161.4 212.76 1161.52 212.872C1161.63 212.968 1161.68 213.096 1161.66 213.256C1161.63 213.848 1161.41 214.456 1161.01 215.08C1160.63 215.688 1160.04 216.2 1159.24 216.616C1158.45 217.032 1157.48 217.24 1156.31 217.24ZM1165.09 217C1164.93 217 1164.79 216.952 1164.68 216.856C1164.58 216.744 1164.53 216.608 1164.53 216.448V200.512C1164.53 200.352 1164.58 200.224 1164.68 200.128C1164.79 200.016 1164.93 199.96 1165.09 199.96H1166.29C1166.45 199.96 1166.57 200.016 1166.67 200.128C1166.78 200.224 1166.84 200.352 1166.84 200.512V206.104C1167.3 205.512 1167.85 205.064 1168.47 204.76C1169.09 204.44 1169.87 204.28 1170.8 204.28C1172.33 204.28 1173.53 204.776 1174.37 205.768C1175.24 206.744 1175.67 208.048 1175.67 209.68V216.448C1175.67 216.608 1175.61 216.744 1175.5 216.856C1175.41 216.952 1175.28 217 1175.12 217H1173.92C1173.76 217 1173.62 216.952 1173.51 216.856C1173.41 216.744 1173.37 216.608 1173.37 216.448V209.8C1173.37 208.664 1173.09 207.784 1172.53 207.16C1171.98 206.536 1171.19 206.224 1170.15 206.224C1169.14 206.224 1168.33 206.544 1167.73 207.184C1167.13 207.808 1166.84 208.68 1166.84 209.8V216.448C1166.84 216.608 1166.78 216.744 1166.67 216.856C1166.57 216.952 1166.45 217 1166.29 217H1165.09ZM1185.57 217C1185.41 217 1185.27 216.952 1185.16 216.856C1185.07 216.744 1185.02 216.608 1185.02 216.448V205.072C1185.02 204.912 1185.07 204.784 1185.16 204.688C1185.27 204.576 1185.41 204.52 1185.57 204.52H1186.65C1186.81 204.52 1186.94 204.576 1187.03 204.688C1187.15 204.784 1187.2 204.912 1187.2 205.072V205.912C1188.03 204.824 1189.19 204.28 1190.68 204.28C1192.46 204.28 1193.71 205.016 1194.45 206.488C1194.83 205.816 1195.38 205.28 1196.08 204.88C1196.79 204.48 1197.58 204.28 1198.46 204.28C1199.77 204.28 1200.84 204.728 1201.67 205.624C1202.51 206.52 1202.92 207.816 1202.92 209.512V216.448C1202.92 216.608 1202.87 216.744 1202.75 216.856C1202.66 216.952 1202.53 217 1202.37 217H1201.24C1201.08 217 1200.95 216.952 1200.83 216.856C1200.74 216.744 1200.69 216.608 1200.69 216.448V209.728C1200.69 208.48 1200.43 207.584 1199.9 207.04C1199.39 206.496 1198.71 206.224 1197.86 206.224C1197.11 206.224 1196.46 206.504 1195.91 207.064C1195.37 207.608 1195.1 208.496 1195.1 209.728V216.448C1195.1 216.608 1195.04 216.744 1194.93 216.856C1194.83 216.952 1194.71 217 1194.55 217H1193.42C1193.26 217 1193.12 216.952 1193.01 216.856C1192.91 216.744 1192.87 216.608 1192.87 216.448V209.728C1192.87 208.48 1192.59 207.584 1192.05 207.04C1191.52 206.496 1190.85 206.224 1190.03 206.224C1189.28 206.224 1188.63 206.504 1188.09 207.064C1187.55 207.608 1187.27 208.488 1187.27 209.704V216.448C1187.27 216.608 1187.22 216.744 1187.11 216.856C1187.01 216.952 1186.88 217 1186.72 217H1185.57ZM1211.46 217.24C1209.7 217.24 1208.33 216.744 1207.35 215.752C1206.39 214.76 1205.88 213.44 1205.82 211.792L1205.79 210.76L1205.82 209.728C1205.88 208.096 1206.4 206.784 1207.38 205.792C1208.35 204.784 1209.71 204.28 1211.46 204.28C1213.2 204.28 1214.56 204.784 1215.54 205.792C1216.51 206.784 1217.03 208.096 1217.1 209.728C1217.11 209.904 1217.12 210.248 1217.12 210.76C1217.12 211.272 1217.11 211.616 1217.1 211.792C1217.03 213.44 1216.51 214.76 1215.54 215.752C1214.58 216.744 1213.22 217.24 1211.46 217.24ZM1211.46 215.392C1212.47 215.392 1213.26 215.072 1213.83 214.432C1214.43 213.792 1214.75 212.872 1214.79 211.672C1214.81 211.512 1214.82 211.208 1214.82 210.76C1214.82 210.312 1214.81 210.008 1214.79 209.848C1214.75 208.648 1214.43 207.728 1213.83 207.088C1213.26 206.448 1212.47 206.128 1211.46 206.128C1210.45 206.128 1209.65 206.448 1209.06 207.088C1208.47 207.728 1208.15 208.648 1208.12 209.848L1208.1 210.76L1208.12 211.672C1208.15 212.872 1208.47 213.792 1209.06 214.432C1209.65 215.072 1210.45 215.392 1211.46 215.392ZM1220.68 217C1220.52 217 1220.38 216.952 1220.27 216.856C1220.18 216.744 1220.13 216.608 1220.13 216.448V205.096C1220.13 204.936 1220.18 204.8 1220.27 204.688C1220.38 204.576 1220.52 204.52 1220.68 204.52H1221.78C1221.94 204.52 1222.08 204.576 1222.19 204.688C1222.3 204.8 1222.36 204.936 1222.36 205.096V206.152C1223.02 205.064 1224.14 204.52 1225.72 204.52H1226.66C1226.82 204.52 1226.94 204.576 1227.04 204.688C1227.15 204.784 1227.21 204.912 1227.21 205.072V206.056C1227.21 206.216 1227.15 206.344 1227.04 206.44C1226.94 206.536 1226.82 206.584 1226.66 206.584H1225.22C1224.35 206.584 1223.67 206.84 1223.18 207.352C1222.68 207.848 1222.43 208.528 1222.43 209.392V216.448C1222.43 216.608 1222.38 216.744 1222.26 216.856C1222.15 216.952 1222.02 217 1221.86 217H1220.68ZM1234 217.24C1232.35 217.24 1231.03 216.736 1230.04 215.728C1229.07 214.704 1228.53 213.312 1228.43 211.552L1228.41 210.736L1228.43 209.944C1228.55 208.216 1229.09 206.84 1230.07 205.816C1231.06 204.792 1232.36 204.28 1233.98 204.28C1235.75 204.28 1237.13 204.848 1238.11 205.984C1239.08 207.104 1239.57 208.624 1239.57 210.544V210.952C1239.57 211.112 1239.51 211.248 1239.4 211.36C1239.31 211.456 1239.18 211.504 1239.02 211.504H1230.71V211.72C1230.76 212.76 1231.07 213.648 1231.65 214.384C1232.24 215.104 1233.02 215.464 1233.98 215.464C1234.71 215.464 1235.31 215.32 1235.78 215.032C1236.26 214.728 1236.61 214.416 1236.83 214.096C1236.98 213.904 1237.08 213.792 1237.15 213.76C1237.23 213.712 1237.36 213.688 1237.55 213.688H1238.73C1238.87 213.688 1238.99 213.728 1239.09 213.808C1239.19 213.888 1239.23 214 1239.23 214.144C1239.23 214.496 1239.01 214.92 1238.56 215.416C1238.13 215.912 1237.51 216.344 1236.71 216.712C1235.93 217.064 1235.03 217.24 1234 217.24ZM1237.29 209.848V209.776C1237.29 208.672 1236.99 207.776 1236.38 207.088C1235.79 206.384 1234.99 206.032 1233.98 206.032C1232.97 206.032 1232.17 206.384 1231.58 207.088C1231 207.776 1230.71 208.672 1230.71 209.776V209.848H1237.29ZM1242.82 217C1242.66 217 1242.53 216.952 1242.42 216.856C1242.32 216.744 1242.27 216.608 1242.27 216.448V214.72C1242.27 214.56 1242.32 214.432 1242.42 214.336C1242.53 214.224 1242.66 214.168 1242.82 214.168H1244.55C1244.71 214.168 1244.85 214.224 1244.96 214.336C1245.07 214.432 1245.13 214.56 1245.13 214.72V216.448C1245.13 216.608 1245.07 216.744 1244.96 216.856C1244.85 216.952 1244.71 217 1244.55 217H1242.82ZM1248.87 217C1248.71 217 1248.57 216.952 1248.46 216.856C1248.37 216.744 1248.32 216.608 1248.32 216.448V214.72C1248.32 214.56 1248.37 214.432 1248.46 214.336C1248.57 214.224 1248.71 214.168 1248.87 214.168H1250.6C1250.76 214.168 1250.89 214.224 1251.01 214.336C1251.12 214.432 1251.17 214.56 1251.17 214.72V216.448C1251.17 216.608 1251.12 216.744 1251.01 216.856C1250.89 216.952 1250.76 217 1250.6 217H1248.87ZM1254.92 217C1254.76 217 1254.62 216.952 1254.51 216.856C1254.41 216.744 1254.37 216.608 1254.37 216.448V214.72C1254.37 214.56 1254.41 214.432 1254.51 214.336C1254.62 214.224 1254.76 214.168 1254.92 214.168H1256.65C1256.81 214.168 1256.94 214.224 1257.05 214.336C1257.17 214.432 1257.22 214.56 1257.22 214.72V216.448C1257.22 216.608 1257.17 216.744 1257.05 216.856C1256.94 216.952 1256.81 217 1256.65 217H1254.92ZM1266.9 208.6C1266.74 208.6 1266.6 208.552 1266.49 208.456C1266.39 208.344 1266.34 208.208 1266.34 208.048V206.368C1266.34 206.208 1266.39 206.08 1266.49 205.984C1266.6 205.872 1266.74 205.816 1266.9 205.816H1268.62C1268.78 205.816 1268.91 205.872 1269.01 205.984C1269.12 206.08 1269.18 206.208 1269.18 206.368V208.048C1269.18 208.208 1269.12 208.344 1269.01 208.456C1268.91 208.552 1268.78 208.6 1268.62 208.6H1266.9ZM1266.9 217C1266.74 217 1266.6 216.952 1266.49 216.856C1266.39 216.744 1266.34 216.608 1266.34 216.448V214.768C1266.34 214.608 1266.39 214.48 1266.49 214.384C1266.6 214.272 1266.74 214.216 1266.9 214.216H1268.62C1268.78 214.216 1268.91 214.272 1269.01 214.384C1269.12 214.48 1269.18 214.608 1269.18 214.768V216.448C1269.18 216.608 1269.12 216.744 1269.01 216.856C1268.91 216.952 1268.78 217 1268.62 217H1266.9ZM1271.96 220.816C1271.81 220.816 1271.68 220.76 1271.57 220.648C1271.46 220.552 1271.4 220.424 1271.4 220.264V219.424C1271.4 219.28 1271.45 219.152 1271.55 219.04C1271.66 218.928 1271.78 218.872 1271.91 218.872C1272.8 218.856 1273.51 218.544 1274.02 217.936C1274.55 217.344 1274.92 216.384 1275.15 215.056C1275.37 213.728 1275.48 211.904 1275.48 209.584C1275.48 207.264 1275.37 205.44 1275.15 204.112C1274.92 202.784 1274.55 201.824 1274.02 201.232C1273.51 200.64 1272.8 200.336 1271.91 200.32C1271.78 200.32 1271.66 200.264 1271.55 200.152C1271.45 200.04 1271.4 199.912 1271.4 199.768V198.928C1271.4 198.768 1271.46 198.64 1271.57 198.544C1271.68 198.432 1271.81 198.376 1271.96 198.376C1273.35 198.376 1274.45 198.768 1275.27 199.552C1276.08 200.32 1276.67 201.52 1277.02 203.152C1277.39 204.768 1277.57 206.912 1277.57 209.584C1277.57 212.256 1277.39 214.408 1277.02 216.04C1276.67 217.656 1276.08 218.856 1275.27 219.64C1274.45 220.424 1273.35 220.816 1271.96 220.816Z" fill="white" fill-opacity="0.6"/>
<g filter="url(#filter1_dddddd)">
<rect width="224.152" height="224.056" rx="20.3636" transform="matrix(0.866212 0.499677 -0.500323 0.865839 1258.84 243)" fill="#23036A"/>
</g>
<g filter="url(#filter2_dddddd)">
<rect width="152.133" height="152.067" rx="20.3636" transform="matrix(0.866212 0.499677 -0.500323 0.865839 1171.08 285.57)" fill="#7F39FB"/>
</g>
<line x1="1091" y1="355" x2="990" y2="355" stroke="#7F39FB" stroke-width="4" stroke-linecap="round"/>
<line x1="976" y1="355" x2="950" y2="355" stroke="#7F39FB" stroke-width="4" stroke-linecap="round"/>
<line x1="939" y1="355" x2="928" y2="355" stroke="#7F39FB" stroke-width="4" stroke-linecap="round"/>
<line x1="909" y1="355" x2="912" y2="355" stroke="#7F39FB" stroke-width="4" stroke-linecap="round"/>
<line x1="1029" y1="368" x2="928" y2="368" stroke="#7F39FB" stroke-width="4" stroke-linecap="round"/>
<line x1="914" y1="368" x2="898" y2="368" stroke="#7F39FB" stroke-width="4" stroke-linecap="round"/>
<line x1="879" y1="368" x2="868" y2="368" stroke="#7F39FB" stroke-width="4" stroke-linecap="round"/>
<line x1="849" y1="368" x2="843" y2="368" stroke="#7F39FB" stroke-width="4" stroke-linecap="round"/>
<path d="M162.034 62.9941V122H147.661V86.6133L134.465 122H122.865L109.585 86.5292V122H95.2113V62.9941H112.19L128.749 103.844L145.139 62.9941H162.034ZM169.512 98.4649C169.512 93.6458 170.409 89.4151 172.202 85.7727C174.051 82.1304 176.545 79.3286 179.683 77.3673C182.821 75.4061 186.323 74.4254 190.19 74.4254C193.496 74.4254 196.382 75.0979 198.847 76.4427C201.369 77.7876 203.302 79.5527 204.647 81.7381V75.0979H219.02V122H204.647V115.36C203.246 117.545 201.285 119.31 198.763 120.655C196.298 122 193.412 122.672 190.106 122.672C186.295 122.672 182.821 121.692 179.683 119.731C176.545 117.713 174.051 114.883 172.202 111.241C170.409 107.543 169.512 103.284 169.512 98.4649ZM204.647 98.5489C204.647 94.9626 203.638 92.1328 201.621 90.0595C199.66 87.9861 197.25 86.9495 194.392 86.9495C191.535 86.9495 189.097 87.9861 187.08 90.0595C185.118 92.0768 184.138 94.8786 184.138 98.4649C184.138 102.051 185.118 104.909 187.08 107.038C189.097 109.112 191.535 110.148 194.392 110.148C197.25 110.148 199.66 109.112 201.621 107.038C203.638 104.965 204.647 102.135 204.647 98.5489ZM255.559 109.812V122H248.247C243.035 122 238.973 120.739 236.059 118.218C233.145 115.64 231.688 111.465 231.688 105.694V87.0335H225.972V75.0979H231.688V63.6665H246.061V75.0979H255.475V87.0335H246.061V105.862C246.061 107.263 246.398 108.271 247.07 108.888C247.742 109.504 248.863 109.812 250.432 109.812H255.559ZM292.396 74.5935C297.776 74.5935 302.09 76.3867 305.34 79.973C308.591 83.5033 310.216 88.3784 310.216 94.5984V122H295.926V96.5316C295.926 93.3936 295.114 90.9561 293.489 89.2189C291.864 87.4818 289.678 86.6133 286.933 86.6133C284.187 86.6133 282.001 87.4818 280.376 89.2189C278.751 90.9561 277.939 93.3936 277.939 96.5316V122H263.566V59.8H277.939V81.4019C279.396 79.3286 281.385 77.6755 283.907 76.4427C286.428 75.2099 289.258 74.5935 292.396 74.5935ZM364.416 97.7924C364.416 99.1373 364.332 100.538 364.164 101.995H331.635C331.859 104.909 332.784 107.15 334.409 108.719C336.09 110.232 338.135 110.989 340.545 110.989C344.131 110.989 346.624 109.476 348.025 106.45H363.323C362.539 109.532 361.11 112.306 359.036 114.771C357.019 117.237 354.47 119.17 351.388 120.571C348.306 121.972 344.859 122.672 341.049 122.672C336.454 122.672 332.363 121.692 328.777 119.731C325.191 117.769 322.389 114.967 320.372 111.325C318.354 107.683 317.346 103.424 317.346 98.5489C317.346 93.6738 318.326 89.4151 320.288 85.7727C322.305 82.1304 325.107 79.3286 328.693 77.3673C332.279 75.4061 336.398 74.4254 341.049 74.4254C345.588 74.4254 349.622 75.378 353.153 77.2833C356.683 79.1885 359.429 81.9062 361.39 85.4365C363.407 88.9668 364.416 93.0854 364.416 97.7924ZM349.706 94.01C349.706 91.5444 348.866 89.5832 347.185 88.1262C345.504 86.6693 343.402 85.9408 340.881 85.9408C338.471 85.9408 336.426 86.6413 334.745 88.0422C333.12 89.4431 332.111 91.4324 331.719 94.01H349.706ZM418.312 75.0979V122H403.939V115.612C402.482 117.685 400.493 119.366 397.971 120.655C395.506 121.888 392.76 122.504 389.734 122.504C386.148 122.504 382.982 121.72 380.236 120.151C377.49 118.526 375.361 116.2 373.848 113.174C372.335 110.148 371.578 106.59 371.578 102.499V75.0979H385.867V100.566C385.867 103.704 386.68 106.142 388.305 107.879C389.93 109.616 392.115 110.485 394.861 110.485C397.663 110.485 399.876 109.616 401.501 107.879C403.127 106.142 403.939 103.704 403.939 100.566V75.0979H418.312ZM447.717 122.672C443.626 122.672 439.984 121.972 436.79 120.571C433.596 119.17 431.074 117.265 429.225 114.855C427.376 112.39 426.339 109.644 426.115 106.618H440.32C440.488 108.243 441.245 109.56 442.589 110.569C443.934 111.577 445.587 112.082 447.549 112.082C449.342 112.082 450.715 111.745 451.667 111.073C452.676 110.345 453.18 109.42 453.18 108.299C453.18 106.954 452.48 105.974 451.079 105.357C449.678 104.685 447.409 103.956 444.271 103.172C440.908 102.387 438.107 101.575 435.865 100.734C433.624 99.8378 431.69 98.4649 430.065 96.6157C428.44 94.7105 427.628 92.1608 427.628 88.9668C427.628 86.2771 428.356 83.8395 429.813 81.6541C431.326 79.4126 433.512 77.6475 436.369 76.3587C439.283 75.0699 442.73 74.4254 446.708 74.4254C452.592 74.4254 457.215 75.8824 460.577 78.7962C463.995 81.7101 465.956 85.5766 466.461 90.3957H453.18C452.956 88.7707 452.228 87.4818 450.995 86.5292C449.818 85.5766 448.249 85.1003 446.288 85.1003C444.607 85.1003 443.318 85.4365 442.421 86.1089C441.525 86.7253 441.076 87.5939 441.076 88.7146C441.076 90.0595 441.777 91.0681 443.178 91.7406C444.635 92.413 446.876 93.0854 449.902 93.7579C453.376 94.6544 456.206 95.551 458.392 96.4476C460.577 97.2881 462.482 98.689 464.107 100.65C465.788 102.556 466.657 105.133 466.713 108.383C466.713 111.129 465.928 113.595 464.359 115.78C462.846 117.909 460.633 119.59 457.719 120.823C454.861 122.056 451.527 122.672 447.717 122.672Z" fill="#7F39FB"/>
<path d="M123.033 197.588C117.598 197.588 112.639 196.328 108.156 193.806C103.673 191.228 100.114 187.67 97.4808 183.131C94.9031 178.536 93.6143 173.381 93.6143 167.665C93.6143 161.949 94.9031 156.822 97.4808 152.283C100.114 147.688 103.673 144.13 108.156 141.608C112.639 139.031 117.598 137.742 123.033 137.742C128.525 137.742 133.512 139.031 137.995 141.608C142.478 144.13 146.008 147.66 148.586 152.199C151.163 156.738 152.452 161.893 152.452 167.665C152.452 173.437 151.163 178.592 148.586 183.131C146.008 187.67 142.478 191.228 137.995 193.806C133.512 196.328 128.525 197.588 123.033 197.588ZM123.033 190.948C127.124 190.948 130.794 189.996 134.044 188.09C137.35 186.185 139.928 183.467 141.777 179.937C143.682 176.407 144.635 172.316 144.635 167.665C144.635 162.958 143.682 158.868 141.777 155.393C139.928 151.863 137.378 149.145 134.128 147.24C130.878 145.335 127.18 144.382 123.033 144.382C118.887 144.382 115.188 145.335 111.938 147.24C108.688 149.145 106.11 151.863 104.205 155.393C102.356 158.868 101.431 162.958 101.431 167.665C101.431 172.316 102.356 176.407 104.205 179.937C106.11 183.467 108.688 186.185 111.938 188.09C115.244 189.996 118.943 190.948 123.033 190.948ZM170.199 134.8V197H162.55V134.8H170.199ZM187.185 143.458C185.729 143.458 184.496 142.953 183.487 141.945C182.478 140.936 181.974 139.703 181.974 138.246C181.974 136.789 182.478 135.557 183.487 134.548C184.496 133.539 185.729 133.035 187.185 133.035C188.586 133.035 189.763 133.539 190.716 134.548C191.724 135.557 192.229 136.789 192.229 138.246C192.229 139.703 191.724 140.936 190.716 141.945C189.763 142.953 188.586 143.458 187.185 143.458ZM190.884 150.938V197H183.235V150.938H190.884ZM221.067 189.939L235.356 150.938H243.51L225.438 197H216.528L198.457 150.938H206.694L221.067 189.939ZM293.063 172.204C293.063 173.661 292.979 175.202 292.811 176.827H255.995C256.276 181.366 257.817 184.924 260.618 187.502C263.476 190.024 266.922 191.284 270.957 191.284C274.263 191.284 277.009 190.528 279.194 189.015C281.436 187.446 283.005 185.373 283.901 182.795H292.139C290.906 187.222 288.44 190.836 284.742 193.638C281.044 196.384 276.449 197.756 270.957 197.756C266.586 197.756 262.664 196.776 259.19 194.815C255.771 192.853 253.082 190.08 251.12 186.493C249.159 182.851 248.178 178.648 248.178 173.885C248.178 169.122 249.131 164.947 251.036 161.361C252.941 157.775 255.603 155.029 259.021 153.124C262.496 151.163 266.474 150.182 270.957 150.182C275.328 150.182 279.194 151.135 282.557 153.04C285.919 154.945 288.496 157.579 290.289 160.941C292.139 164.247 293.063 168.001 293.063 172.204ZM285.162 170.607C285.162 167.693 284.518 165.2 283.229 163.126C281.94 160.997 280.175 159.4 277.934 158.335C275.748 157.214 273.311 156.654 270.621 156.654C266.754 156.654 263.448 157.887 260.702 160.352C258.013 162.818 256.472 166.236 256.08 170.607H285.162ZM307.11 143.458C305.653 143.458 304.42 142.953 303.412 141.945C302.403 140.936 301.899 139.703 301.899 138.246C301.899 136.789 302.403 135.557 303.412 134.548C304.42 133.539 305.653 133.035 307.11 133.035C308.511 133.035 309.688 133.539 310.64 134.548C311.649 135.557 312.153 136.789 312.153 138.246C312.153 139.703 311.649 140.936 310.64 141.945C309.688 142.953 308.511 143.458 307.11 143.458ZM310.809 150.938V197H303.16V150.938H310.809ZM331.494 158.419C332.839 155.786 334.744 153.74 337.209 152.283C339.731 150.826 342.785 150.098 346.371 150.098V157.999H344.354C335.78 157.999 331.494 162.65 331.494 171.952V197H323.845V150.938H331.494V158.419ZM352.343 173.801C352.343 169.094 353.296 164.975 355.201 161.445C357.106 157.859 359.712 155.085 363.018 153.124C366.38 151.163 370.106 150.182 374.197 150.182C378.232 150.182 381.734 151.05 384.704 152.788C387.674 154.525 389.887 156.71 391.344 159.344V150.938H399.077V197H391.344V188.426C389.831 191.116 387.562 193.358 384.536 195.151C381.566 196.888 378.092 197.756 374.113 197.756C370.022 197.756 366.324 196.748 363.018 194.731C359.712 192.713 357.106 189.883 355.201 186.241C353.296 182.599 352.343 178.452 352.343 173.801ZM391.344 173.885C391.344 170.411 390.644 167.385 389.243 164.807C387.842 162.23 385.937 160.268 383.527 158.924C381.174 157.523 378.568 156.822 375.71 156.822C372.852 156.822 370.247 157.495 367.893 158.839C365.539 160.184 363.662 162.146 362.261 164.723C360.86 167.301 360.16 170.327 360.16 173.801C360.16 177.331 360.86 180.413 362.261 183.047C363.662 185.625 365.539 187.614 367.893 189.015C370.247 190.36 372.852 191.032 375.71 191.032C378.568 191.032 381.174 190.36 383.527 189.015C385.937 187.614 387.842 185.625 389.243 183.047C390.644 180.413 391.344 177.359 391.344 173.885Z" fill="#7F39FB"/>
</g>
<defs>
<filter id="filter0_d" x="1209.1" y="79.7611" width="47.2319" height="28.2938" filterUnits="userSpaceOnUse" color-interpolation-filters="sRGB">
<feFlood flood-opacity="0" result="BackgroundImageFix"/>
<feColorMatrix in="SourceAlpha" type="matrix" values="0 0 0 0 0 0 0 0 0 0 0 0 0 0 0 0 0 0 127 0"/>
<feOffset dy="1.04408"/>
<feGaussianBlur stdDeviation="0.261019"/>
<feColorMatrix type="matrix" values="0 0 0 0 0.0235294 0 0 0 0 0.0352941 0 0 0 0 0.168627 0 0 0 0.15 0"/>
<feBlend mode="normal" in2="BackgroundImageFix" result="effect1_dropShadow"/>
<feBlend mode="normal" in="SourceGraphic" in2="effect1_dropShadow" result="shape"/>
</filter>
<filter id="filter1_dddddd" x="991.281" y="250.446" width="617.174" height="657.653" filterUnits="userSpaceOnUse" color-interpolation-filters="sRGB">
<feFlood flood-opacity="0" result="BackgroundImageFix"/>
<feColorMatrix in="SourceAlpha" type="matrix" values="0 0 0 0 0 0 0 0 0 0 0 0 0 0 0 0 0 0 127 0"/>
<feOffset dy="5.63514"/>
<feGaussianBlur stdDeviation="2.25406"/>
<feColorMatrix type="matrix" values="0 0 0 0 0 0 0 0 0 0 0 0 0 0 0 0 0 0 0.0196802 0"/>
<feBlend mode="normal" in2="BackgroundImageFix" result="effect1_dropShadow"/>
<feColorMatrix in="SourceAlpha" type="matrix" values="0 0 0 0 0 0 0 0 0 0 0 0 0 0 0 0 0 0 127 0"/>
<feOffset dy="13.542"/>
<feGaussianBlur stdDeviation="5.41681"/>
<feColorMatrix type="matrix" values="0 0 0 0 0 0 0 0 0 0 0 0 0 0 0 0 0 0 0.0282725 0"/>
<feBlend mode="normal" in2="effect1_dropShadow" result="effect2_dropShadow"/>
<feColorMatrix in="SourceAlpha" type="matrix" values="0 0 0 0 0 0 0 0 0 0 0 0 0 0 0 0 0 0 127 0"/>
<feOffset dy="25.4984"/>
<feGaussianBlur stdDeviation="10.1994"/>
<feColorMatrix type="matrix" values="0 0 0 0 0 0 0 0 0 0 0 0 0 0 0 0 0 0 0.035 0"/>
<feBlend mode="normal" in2="effect2_dropShadow" result="effect3_dropShadow"/>
<feColorMatrix in="SourceAlpha" type="matrix" values="0 0 0 0 0 0 0 0 0 0 0 0 0 0 0 0 0 0 127 0"/>
<feOffset dy="45.4848"/>
<feGaussianBlur stdDeviation="18.1939"/>
<feColorMatrix type="matrix" values="0 0 0 0 0 0 0 0 0 0 0 0 0 0 0 0 0 0 0.0417275 0"/>
<feBlend mode="normal" in2="effect3_dropShadow" result="effect4_dropShadow"/>
<feColorMatrix in="SourceAlpha" type="matrix" values="0 0 0 0 0 0 0 0 0 0 0 0 0 0 0 0 0 0 127 0"/>
<feOffset dy="85.0744"/>
<feGaussianBlur stdDeviation="34.0298"/>
<feColorMatrix type="matrix" values="0 0 0 0 0 0 0 0 0 0 0 0 0 0 0 0 0 0 0.0503198 0"/>
<feBlend mode="normal" in2="effect4_dropShadow" result="effect5_dropShadow"/>
<feColorMatrix in="SourceAlpha" type="matrix" values="0 0 0 0 0 0 0 0 0 0 0 0 0 0 0 0 0 0 127 0"/>
<feOffset dy="203.636"/>
<feGaussianBlur stdDeviation="81.4545"/>
<feColorMatrix type="matrix" values="0 0 0 0 0 0 0 0 0 0 0 0 0 0 0 0 0 0 0.07 0"/>
<feBlend mode="normal" in2="effect5_dropShadow" result="effect6_dropShadow"/>
<feBlend mode="normal" in="SourceGraphic" in2="effect6_dropShadow" result="shape"/>
</filter>
<filter id="filter2_dddddd" x="939.545" y="293.016" width="518.772" height="559.336" filterUnits="userSpaceOnUse" color-interpolation-filters="sRGB">
<feFlood flood-opacity="0" result="BackgroundImageFix"/>
<feColorMatrix in="SourceAlpha" type="matrix" values="0 0 0 0 0 0 0 0 0 0 0 0 0 0 0 0 0 0 127 0"/>
<feOffset dy="5.63514"/>
<feGaussianBlur stdDeviation="2.25406"/>
<feColorMatrix type="matrix" values="0 0 0 0 0 0 0 0 0 0 0 0 0 0 0 0 0 0 0.0196802 0"/>
<feBlend mode="normal" in2="BackgroundImageFix" result="effect1_dropShadow"/>
<feColorMatrix in="SourceAlpha" type="matrix" values="0 0 0 0 0 0 0 0 0 0 0 0 0 0 0 0 0 0 127 0"/>
<feOffset dy="13.542"/>
<feGaussianBlur stdDeviation="5.41681"/>
<feColorMatrix type="matrix" values="0 0 0 0 0 0 0 0 0 0 0 0 0 0 0 0 0 0 0.0282725 0"/>
<feBlend mode="normal" in2="effect1_dropShadow" result="effect2_dropShadow"/>
<feColorMatrix in="SourceAlpha" type="matrix" values="0 0 0 0 0 0 0 0 0 0 0 0 0 0 0 0 0 0 127 0"/>
<feOffset dy="25.4984"/>
<feGaussianBlur stdDeviation="10.1994"/>
<feColorMatrix type="matrix" values="0 0 0 0 0 0 0 0 0 0 0 0 0 0 0 0 0 0 0.035 0"/>
<feBlend mode="normal" in2="effect2_dropShadow" result="effect3_dropShadow"/>
<feColorMatrix in="SourceAlpha" type="matrix" values="0 0 0 0 0 0 0 0 0 0 0 0 0 0 0 0 0 0 127 0"/>
<feOffset dy="45.4848"/>
<feGaussianBlur stdDeviation="18.1939"/>
<feColorMatrix type="matrix" values="0 0 0 0 0 0 0 0 0 0 0 0 0 0 0 0 0 0 0.0417275 0"/>
<feBlend mode="normal" in2="effect3_dropShadow" result="effect4_dropShadow"/>
<feColorMatrix in="SourceAlpha" type="matrix" values="0 0 0 0 0 0 0 0 0 0 0 0 0 0 0 0 0 0 127 0"/>
<feOffset dy="85.0744"/>
<feGaussianBlur stdDeviation="34.0298"/>
<feColorMatrix type="matrix" values="0 0 0 0 0 0 0 0 0 0 0 0 0 0 0 0 0 0 0.0503198 0"/>
<feBlend mode="normal" in2="effect4_dropShadow" result="effect5_dropShadow"/>
<feColorMatrix in="SourceAlpha" type="matrix" values="0 0 0 0 0 0 0 0 0 0 0 0 0 0 0 0 0 0 127 0"/>
<feOffset dy="203.636"/>
<feGaussianBlur stdDeviation="81.4545"/>
<feColorMatrix type="matrix" values="0 0 0 0 0 0 0 0 0 0 0 0 0 0 0 0 0 0 0.07 0"/>
<feBlend mode="normal" in2="effect5_dropShadow" result="effect6_dropShadow"/>
<feBlend mode="normal" in="SourceGraphic" in2="effect6_dropShadow" result="shape"/>
</filter>
<linearGradient id="paint0_linear" x1="1233.47" y1="123.921" x2="1232.67" y2="44.473" gradientUnits="userSpaceOnUse">
<stop stop-color="white"/>
<stop offset="1" stop-color="#E8E8E8"/>
</linearGradient>
<clipPath id="clip0">
<rect width="1362" height="396" rx="16" fill="white"/>
</clipPath>
<clipPath id="clip1">
<rect width="66.25" height="66.25" fill="white" transform="translate(1199.12 60)"/>
</clipPath>
</defs>
</svg>
